<svg width="10" height="18" viewBox="0 0 10 18" xmlns="http://www.w3.org/2000/svg">
<path d="M9.30829 7.39171L9.02645 9.75829C9.01428 9.86822 8.96183 9.96974 8.87922 10.0433C8.7966 10.1168 8.68968 10.1571 8.57908 10.1564H6.11855V17.1801C6.11915 17.264 6.08656 17.3447 6.0279 17.4046C5.96923 17.4645 5.88925 17.4988 5.80539 17.5H3.29789C3.25618 17.4994 3.21499 17.4906 3.17668 17.4741C3.13836 17.4576 3.10368 17.4337 3.0746 17.4038C3.04552 17.3739 3.02261 17.3386 3.00719 17.2998C2.99178 17.261 2.98414 17.2196 2.98474 17.1779L2.99816 10.1564H1.13487C1.01622 10.1564 0.902429 10.1093 0.818531 10.0254C0.734633 9.94152 0.6875 9.82773 0.6875 9.70908V7.3425C0.6875 7.22385 0.734633 7.11006 0.818531 7.02616C0.902429 6.94227 1.01622 6.89513 1.13487 6.89513H2.98697V4.60013C2.98697 1.945 4.56618 0.5 6.87908 0.5H8.77368C8.89233 0.5 9.00612 0.547133 9.09002 0.631031C9.17392 0.714929 9.22105 0.828719 9.22105 0.947368V2.94039C9.22105 3.05904 9.17392 3.17283 9.09002 3.25673C9.00612 3.34063 8.89233 3.38776 8.77368 3.38776H7.61276C6.35566 3.40789 6.11855 4.0096 6.11855 4.90882V6.88842H8.8721C8.93493 6.8895 8.99682 6.90379 9.05374 6.93038C9.11067 6.95697 9.16136 6.99525 9.20251 7.04273C9.24366 7.09021 9.27435 7.14582 9.29257 7.20595C9.3108 7.26608 9.31615 7.32937 9.30829 7.39171Z" fill="currentColor"/>
</svg>
