<svg width="18" height="18" viewBox="0 0 18 18" xmlns="http://www.w3.org/2000/svg">
<path d="M12.4358 0.5H5.56421C4.22164 0.501775 2.93457 1.03589 1.98523 1.98523C1.03589 2.93457 0.501775 4.22164 0.5 5.56421V12.4358C0.501775 13.7784 1.03589 15.0654 1.98523 16.0148C2.93457 16.9641 4.22164 17.4982 5.56421 17.5H12.4358C13.7785 17.4988 15.066 16.9649 16.0154 16.0154C16.9649 15.066 17.4988 13.7785 17.5 12.4358V5.56421C17.4982 4.22164 16.9641 2.93457 16.0148 1.98523C15.0654 1.03589 13.7784 0.501775 12.4358 0.5ZM15.7911 12.4358C15.7911 13.3257 15.4376 14.1791 14.8083 14.8083C14.1791 15.4376 13.3257 15.7911 12.4358 15.7911H5.56421C4.67434 15.7911 3.82091 15.4376 3.19168 14.8083C2.56245 14.1791 2.20895 13.3257 2.20895 12.4358V5.56421C2.20895 4.67434 2.56245 3.82091 3.19168 3.19168C3.82091 2.56245 4.67434 2.20895 5.56421 2.20895H12.4358C13.3257 2.20895 14.1791 2.56245 14.8083 3.19168C15.4376 3.82091 15.7911 4.67434 15.7911 5.56421V12.4358Z" fill="currentColor"/>
<path d="M9.00143 4.60449C8.13147 4.60405 7.28093 4.86165 6.5574 5.3447C5.83387 5.82774 5.26987 6.51454 4.93674 7.31819C4.60362 8.12184 4.51634 9.00625 4.68595 9.85951C4.85557 10.7128 5.27445 11.4966 5.8896 12.1117C6.50476 12.7269 7.28854 13.1458 8.14181 13.3154C8.99507 13.485 9.87948 13.3977 10.6831 13.0646C11.4868 12.7315 12.1736 12.1675 12.6566 11.4439C13.1397 10.7204 13.3973 9.86985 13.3968 8.99989C13.3956 7.83452 12.9322 6.71722 12.1081 5.89318C11.2841 5.06914 10.1668 4.60568 9.00143 4.60449ZM9.00143 11.6841C8.47055 11.6841 7.95158 11.5267 7.51017 11.2317C7.06875 10.9368 6.72471 10.5176 6.52154 10.0271C6.31838 9.53661 6.26523 8.99691 6.3688 8.47622C6.47237 7.95554 6.72801 7.47726 7.10341 7.10186C7.4788 6.72647 7.95708 6.47082 8.47777 6.36725C8.99845 6.26368 9.53816 6.31684 10.0286 6.52C10.5191 6.72316 10.9383 7.0672 11.2333 7.50862C11.5282 7.95004 11.6856 8.469 11.6856 8.99989C11.6856 9.71178 11.4028 10.3945 10.8995 10.8979C10.3961 11.4013 9.71333 11.6841 9.00143 11.6841Z" fill="currentColor"/>
<path d="M13.423 5.69179C14.0234 5.69179 14.5101 5.20507 14.5101 4.60468C14.5101 4.00429 14.0234 3.51758 13.423 3.51758C12.8226 3.51758 12.3359 4.00429 12.3359 4.60468C12.3359 5.20507 12.8226 5.69179 13.423 5.69179Z" fill="currentColor"/>
</svg>
