<svg width="24" height="24" viewBox="0 0 24 24" xmlns="http://www.w3.org/2000/svg">
<path d="M12 0C5.3828 0 0 5.3828 0 12C0 18.6172 5.3828 24 12 24C18.6172 24 24 18.6163 24 12C24 5.38373 18.6172 0 12 0ZM12 22.141C6.40898 22.141 1.85902 17.592 1.85902 12C1.85902 6.40805 6.40898 1.85902 12 1.85902C17.591 1.85902 22.141 6.40805 22.141 12C22.141 17.592 17.592 22.141 12 22.141Z" fill="currentColor"/>
<path d="M16.6465 10.9864H12.9285V7.2684C12.9285 6.7553 12.513 6.33887 11.999 6.33887C11.4849 6.33887 11.0694 6.7553 11.0694 7.2684V10.9864H7.35141C6.83738 10.9864 6.42188 11.4029 6.42188 11.916C6.42188 12.4291 6.83738 12.8455 7.35141 12.8455H11.0694V16.5635C11.0694 17.0766 11.4849 17.4931 11.999 17.4931C12.513 17.4931 12.9285 17.0766 12.9285 16.5635V12.8455H16.6465C17.1606 12.8455 17.5761 12.4291 17.5761 11.916C17.5761 11.4029 17.1606 10.9864 16.6465 10.9864Z" fill="currentColor"/>
</svg>
