<svg width="18" height="16" viewBox="0 0 18 16" xmlns="http://www.w3.org/2000/svg">
<path d="M17.4659 2.85504C17.0641 3.45865 16.5731 3.99788 16.0097 4.45439C15.9387 4.51358 15.8817 4.58786 15.843 4.67183C15.8044 4.75579 15.7849 4.84733 15.786 4.93978V4.9957C15.7795 6.20794 15.5568 7.40929 15.1284 8.54333C14.687 9.7336 14.0312 10.8329 13.1935 11.7868C12.0678 13.0683 10.6197 14.0252 8.99943 14.5582C7.93476 14.9038 6.82165 15.0767 5.70233 15.0704C3.92658 15.0702 2.1825 14.6002 0.647066 13.7082C0.592046 13.6769 0.548733 13.6285 0.523704 13.5704C0.498675 13.5123 0.493295 13.4476 0.508383 13.3861C0.523865 13.3256 0.559145 13.272 0.608601 13.2339C0.658058 13.1958 0.718844 13.1754 0.781277 13.1758H1.20628C2.55576 13.1791 3.87538 12.7787 4.99549 12.0261C4.32796 11.918 3.70323 11.6277 3.19014 11.1873C2.67705 10.7468 2.29552 10.1732 2.08759 9.52978C2.07695 9.49755 2.07501 9.46309 2.08199 9.42988C2.08897 9.39666 2.10461 9.36589 2.12733 9.34067C2.15004 9.31546 2.17903 9.2967 2.21133 9.28631C2.24364 9.27592 2.27812 9.27425 2.31128 9.28149C2.51484 9.31979 2.72151 9.33926 2.92865 9.33965H3.00693C2.36178 9.04325 1.81629 8.56633 1.4364 7.96652C1.05651 7.36672 0.85849 6.66972 0.866277 5.95978C0.866507 5.92656 0.875337 5.89397 0.891905 5.86517C0.908474 5.83638 0.932216 5.81237 0.960821 5.79547C0.989426 5.77858 1.02192 5.76938 1.05513 5.76878C1.08835 5.76817 1.12115 5.77618 1.15036 5.79202C1.41277 5.93852 1.69434 6.04769 1.98694 6.11636C1.4086 5.54418 1.03661 4.79618 0.929326 3.98973C0.822044 3.18329 0.985544 2.36405 1.39417 1.66057C1.40963 1.63355 1.43142 1.61069 1.45766 1.59394C1.4839 1.5772 1.51381 1.56707 1.54483 1.56443C1.57585 1.56179 1.60704 1.56672 1.63573 1.57879C1.66443 1.59086 1.68976 1.60971 1.70957 1.63373C2.51747 2.63405 3.51805 3.46192 4.65194 4.06826C5.78583 4.67459 7.02994 5.04702 8.31049 5.16346H8.32838C8.3472 5.16292 8.3657 5.15855 8.38277 5.15062C8.39984 5.1427 8.41512 5.13138 8.42768 5.11736C8.44023 5.10334 8.4498 5.08691 8.45581 5.06907C8.46181 5.05123 8.46412 5.03236 8.46259 5.0136C8.41265 4.56469 8.44142 4.11051 8.54759 3.67149C8.69192 3.07473 8.98817 2.52546 9.40757 2.07706C9.82696 1.62866 10.3552 1.29639 10.941 1.11254C11.3169 0.995142 11.7082 0.934821 12.1019 0.933596C12.9947 0.932567 13.8571 1.25794 14.5267 1.84846C14.6134 1.92607 14.7257 1.96906 14.8421 1.96925C14.8798 1.96845 14.9174 1.96319 14.9539 1.9536C15.5831 1.79462 16.1858 1.54523 16.7434 1.2132C16.7767 1.19262 16.8157 1.18285 16.8548 1.18525C16.8939 1.18764 16.9314 1.20206 16.962 1.22655C16.9926 1.25105 17.0149 1.2844 17.0258 1.32205C17.0367 1.35971 17.0357 1.39981 17.023 1.43689C16.8368 2.02245 16.5051 2.5512 16.0589 2.9736C16.4609 2.87775 16.8532 2.74522 17.231 2.57767C17.2683 2.56328 17.3091 2.56086 17.3479 2.57074C17.3866 2.58062 17.4213 2.60232 17.4471 2.63282C17.4729 2.66332 17.4886 2.70111 17.492 2.74093C17.4953 2.78076 17.4862 2.82064 17.4659 2.85504Z" fill="currentColor"/>
</svg>
