<svg width="24" height="24" viewBox="0 0 24 24" xmlns="http://www.w3.org/2000/svg">
<path d="M11.8275 11.5609C13.4158 11.5609 14.7909 10.9913 15.9148 9.86735C17.0383 8.74364 17.6081 7.3687 17.6081 5.78026C17.6081 4.19237 17.0385 2.81726 15.9146 1.69317C14.7907 0.56964 13.4156 0 11.8275 0C10.2391 0 8.86413 0.56964 7.74041 1.69336C6.6167 2.81707 6.04688 4.19219 6.04688 5.78026C6.04688 7.3687 6.6167 8.74382 7.74041 9.86753C8.8645 10.9911 10.2396 11.5609 11.8275 11.5609Z" fill="currentColor"/>
<path d="M21.9435 18.4546C21.9111 17.987 21.8455 17.4769 21.749 16.9382C21.6516 16.3954 21.5262 15.8824 21.3761 15.4134C21.2208 14.9288 21.01 14.4501 20.7491 13.9915C20.4787 13.5154 20.1608 13.1008 19.8041 12.7597C19.4311 12.4028 18.9745 12.1159 18.4464 11.9066C17.9201 11.6984 17.3369 11.593 16.7131 11.593C16.4681 11.593 16.2312 11.6935 15.7736 11.9914C15.492 12.175 15.1626 12.3874 14.7949 12.6224C14.4805 12.8227 14.0546 13.0104 13.5285 13.1803C13.0153 13.3464 12.4942 13.4306 11.9797 13.4306C11.4655 13.4306 10.9444 13.3464 10.4308 13.1803C9.90526 13.0106 9.47917 12.8229 9.16533 12.6226C8.80113 12.3898 8.47155 12.1774 8.18572 11.9912C7.7285 11.6933 7.49157 11.5928 7.24657 11.5928C6.62255 11.5928 6.03954 11.6984 5.51348 11.9068C4.98577 12.1157 4.52893 12.4026 4.15557 12.7599C3.79889 13.1012 3.48102 13.5156 3.21075 13.9915C2.95019 14.4501 2.73926 14.9286 2.58398 15.4136C2.43402 15.8826 2.30859 16.3954 2.21118 16.9382C2.1145 17.4761 2.04913 17.9864 2.01672 18.4552C1.98486 18.9135 1.96875 19.3905 1.96875 19.8724C1.96875 21.1252 2.367 22.1394 3.15234 22.8874C3.92797 23.6255 4.9541 23.9998 6.20232 23.9998H17.7585C19.0063 23.9998 20.0324 23.6255 20.8083 22.8874C21.5938 22.14 21.992 21.1254 21.992 19.8722C21.9918 19.3887 21.9755 18.9117 21.9435 18.4546Z" fill="currentColor"/>
</svg>
