<svg width="18" height="18" viewBox="0 0 18 18" xmlns="http://www.w3.org/2000/svg">
<path d="M10.7913 0.0527344H7.21238C5.55128 0.0527344 3.95823 0.712601 2.78366 1.88717C1.60909 3.06174 0.949219 4.6548 0.949219 6.31589V9.0001C0.948721 10.1858 1.28478 11.3472 1.91834 12.3494C2.55189 13.3516 3.45691 14.1534 4.52817 14.6615V17.6522C4.52923 17.7106 4.54731 17.7673 4.58017 17.8155C4.61304 17.8638 4.65926 17.9013 4.71318 17.9237C4.76709 17.946 4.82635 17.9521 4.88368 17.9412C4.94101 17.9303 4.99393 17.903 5.03593 17.8625L7.63514 15.2633H10.7913C12.4524 15.2633 14.0455 14.6034 15.22 13.4288C16.3946 12.2543 17.0545 10.6612 17.0545 9.0001V6.31589C17.0545 4.6548 16.3946 3.06174 15.22 1.88717C14.0455 0.712601 12.4524 0.0527344 10.7913 0.0527344ZM13.1355 11.7917L12.2408 12.6864C11.2879 13.6192 8.80054 12.5544 6.60843 10.3154C4.41633 8.07629 3.45448 5.56431 4.37159 4.63155L5.26632 3.73681C5.44168 3.5794 5.66968 3.49346 5.90532 3.49594C6.14095 3.49842 6.36709 3.58916 6.53909 3.75023L7.8454 5.09234C7.94915 5.1994 8.02397 5.33109 8.06281 5.47502C8.10166 5.61896 8.10327 5.7704 8.06748 5.91513C8.03169 6.05985 7.95968 6.1931 7.85823 6.30233C7.75677 6.41157 7.6292 6.49321 7.48751 6.53958C7.27749 6.60401 7.10035 6.74687 6.99289 6.93847C6.88542 7.13008 6.85588 7.35571 6.9104 7.56852C7.13409 8.56168 8.39567 9.80537 9.33514 10.0492C9.54694 10.0996 9.76988 10.0712 9.96218 9.96903C10.1545 9.86691 10.3029 9.69818 10.3797 9.49444C10.4294 9.35235 10.5147 9.22542 10.6276 9.12587C10.7405 9.02632 10.8771 8.95751 11.0243 8.92605C11.1715 8.89459 11.3243 8.90154 11.468 8.94625C11.6117 8.99095 11.7415 9.07189 11.8449 9.18129L13.149 10.5234C13.3056 10.6983 13.3911 10.9254 13.3886 11.1601C13.3861 11.3949 13.2958 11.6202 13.1355 11.7917ZM9.81606 4.30273C9.72709 4.30231 9.63818 4.30754 9.54988 4.31839C9.51095 4.32265 9.47158 4.3192 9.43399 4.30824C9.3964 4.29728 9.36134 4.27903 9.3308 4.25452C9.30027 4.23001 9.27486 4.19972 9.25603 4.1654C9.2372 4.13107 9.22532 4.09337 9.22106 4.05444C9.2168 4.01552 9.22025 3.97614 9.23121 3.93856C9.24217 3.90097 9.26043 3.86591 9.28494 3.83537C9.30945 3.80484 9.33973 3.77943 9.37406 3.7606C9.40839 3.74177 9.44609 3.72989 9.48501 3.72563C9.5949 3.71298 9.70545 3.707 9.81606 3.70773C10.6077 3.70714 11.3671 4.02088 11.9275 4.57999C12.4879 5.13911 12.8033 5.89785 12.8045 6.68944C12.8052 6.80006 12.7992 6.91061 12.7866 7.0205C12.7823 7.05942 12.7704 7.09712 12.7516 7.13145C12.7328 7.16578 12.7074 7.19606 12.6768 7.22057C12.6463 7.24508 12.6112 7.26334 12.5737 7.2743C12.5361 7.28526 12.4967 7.2887 12.4578 7.28445C12.4188 7.28019 12.3811 7.2683 12.3468 7.24947C12.3125 7.23064 12.2822 7.20524 12.2577 7.1747C12.2332 7.14417 12.2149 7.10911 12.204 7.07152C12.193 7.03393 12.1896 6.99455 12.1938 6.95563C12.2036 6.86722 12.2088 6.77838 12.2095 6.68944C12.2083 6.05565 11.9555 5.44825 11.5068 5.00072C11.058 4.55319 10.4499 4.30214 9.81606 4.30273ZM11.6055 6.68944C11.5991 6.76418 11.5648 6.83377 11.5095 6.88448C11.4542 6.93518 11.3819 6.96331 11.3069 6.96331C11.2319 6.96331 11.1596 6.93518 11.1043 6.88448C11.049 6.83377 11.0148 6.76418 11.0083 6.68944C11.0083 6.37324 10.8827 6.06999 10.6591 5.84641C10.4355 5.62282 10.1323 5.49721 9.81606 5.49721C9.77467 5.50079 9.73299 5.49574 9.69366 5.48236C9.65434 5.46898 9.61822 5.44757 9.5876 5.41949C9.55698 5.39141 9.53254 5.35728 9.51581 5.31925C9.49909 5.28122 9.49046 5.24013 9.49046 5.19859C9.49046 5.15705 9.49909 5.11596 9.51581 5.07793C9.53254 5.0399 9.55698 5.00577 9.5876 4.97769C9.61822 4.94961 9.65434 4.9282 9.69366 4.91482C9.73299 4.90144 9.77467 4.89639 9.81606 4.89997C10.2907 4.89997 10.7458 5.0885 11.0814 5.4241C11.417 5.75969 11.6055 6.21485 11.6055 6.68944ZM13.8804 7.658C13.8738 7.69866 13.8589 7.73753 13.8366 7.77216C13.8142 7.8068 13.785 7.83647 13.7507 7.85931C13.7165 7.88215 13.6778 7.89768 13.6373 7.90493C13.5967 7.91217 13.5551 7.91098 13.515 7.90142C13.475 7.89187 13.4373 7.87415 13.4044 7.84938C13.3714 7.82462 13.344 7.79333 13.3237 7.75747C13.3034 7.72161 13.2907 7.68196 13.2864 7.64098C13.2822 7.6 13.2864 7.55859 13.2988 7.51931C13.3634 7.24895 13.3957 6.97189 13.395 6.69392C13.395 5.74472 13.0179 4.8344 12.3468 4.16322C11.6756 3.49204 10.7653 3.11497 9.81606 3.11497C9.72435 3.11497 9.6304 3.11497 9.53869 3.11497C9.49963 3.11791 9.46036 3.11312 9.42314 3.10089C9.38592 3.08865 9.35148 3.0692 9.32178 3.04365C9.26179 2.99205 9.22476 2.91874 9.21883 2.83984C9.21289 2.76094 9.23855 2.68291 9.29014 2.62292C9.34174 2.56294 9.41505 2.5259 9.49396 2.51997C9.60132 2.51102 9.70869 2.50655 9.81606 2.50655C10.9243 2.50833 11.9865 2.94981 12.7695 3.73406C13.5525 4.51831 13.9922 5.58123 13.9922 6.68944C13.9924 7.01552 13.9548 7.34053 13.8804 7.658Z" fill="currentColor"/>
</svg>
