<svg width="18" height="18" viewBox="0 0 18 18" xmlns="http://www.w3.org/2000/svg">
<path d="M14.9958 3.00313C13.5811 1.5725 11.7017 0.694769 9.69663 0.528404C7.69159 0.36204 5.69315 0.918006 4.0621 2.09593C2.43105 3.27385 1.27488 4.9961 0.802324 6.95174C0.329773 8.90738 0.571983 10.9675 1.48522 12.7602L0.590488 17.1042C0.580907 17.1476 0.580536 17.1925 0.589398 17.236C0.59826 17.2796 0.616158 17.3208 0.641935 17.3569C0.67885 17.4117 0.731618 17.454 0.793179 17.4779C0.854739 17.5019 0.922155 17.5065 0.986409 17.4912L5.23641 16.4823C7.02421 17.3716 9.06956 17.5977 11.0084 17.1203C12.9473 16.6429 14.6538 15.493 15.8243 13.8752C16.9948 12.2575 17.5532 10.2769 17.4003 8.28602C17.2473 6.29512 16.3929 4.42309 14.989 3.00313H14.9958ZM13.6671 13.5991C12.6887 14.5757 11.4289 15.2211 10.0647 15.4446C8.70054 15.6681 7.30063 15.4584 6.0618 14.845L5.4668 14.5497L2.85641 15.1671V15.1335L3.40667 12.5008L3.11588 11.9281C2.48246 10.6859 2.2588 9.27503 2.47702 7.89785C2.69523 6.52067 3.34409 5.248 4.33049 4.26247C5.56904 3.02521 7.24811 2.33023 8.99878 2.33023C10.7494 2.33023 12.4285 3.02521 13.6671 4.26247L13.6961 4.30274C14.9186 5.54393 15.601 7.21794 15.5947 8.96004C15.5885 10.7021 14.894 12.3712 13.6626 13.6035L13.6671 13.5991Z" fill="currentColor"/>
<path d="M13.4372 11.6845C13.1174 12.1878 12.6096 12.8029 11.9766 12.9572C10.8582 13.2257 9.15593 12.9572 7.02422 10.9866L6.99738 10.962C5.14304 9.23066 4.65093 7.7879 4.76054 6.64487C4.82541 5.99395 5.36672 5.4079 5.82304 5.02316C5.89559 4.96199 5.98144 4.91864 6.07374 4.89657C6.16604 4.8745 6.26221 4.87432 6.35459 4.89606C6.44697 4.91779 6.53298 4.96083 6.60575 5.02174C6.67852 5.08265 6.73604 5.15974 6.7737 5.24685L7.46041 6.79922C7.50524 6.89914 7.52205 7.00938 7.50905 7.11813C7.49605 7.22688 7.45372 7.33004 7.38659 7.41658L7.03764 7.86395C6.96512 7.95682 6.92191 8.06919 6.91354 8.18673C6.90517 8.30426 6.93203 8.42162 6.99067 8.52382C7.32213 9.01236 7.71873 9.45336 8.16949 9.83461C8.65446 10.3013 9.20447 10.6954 9.80238 11.0045C9.91151 11.0485 10.0313 11.059 10.1464 11.0347C10.2615 11.0104 10.3668 10.9524 10.4488 10.868L10.8492 10.4609C10.9254 10.379 11.0228 10.3198 11.1306 10.2897C11.2383 10.2597 11.3523 10.2602 11.4599 10.2909L13.0928 10.7584C13.1853 10.7848 13.2703 10.8325 13.341 10.8978C13.4116 10.9631 13.4659 11.0441 13.4995 11.1342C13.533 11.2244 13.5449 11.3212 13.534 11.4168C13.5232 11.5124 13.4901 11.6041 13.4372 11.6845Z" fill="currentColor"/>
</svg>
