<svg width="18" height="14" viewBox="0 0 18 14" xmlns="http://www.w3.org/2000/svg">
<path d="M17.1024 2.91127C16.7624 1.85548 15.6373 1.2314 14.5927 1.08601C10.8691 0.690081 7.1141 0.690081 3.39056 1.08601C2.3549 1.2314 1.22977 1.86443 0.889773 2.91127C0.359659 5.61221 0.359659 8.39046 0.889773 11.0914C1.23872 12.145 2.36385 12.7713 3.40846 12.9167C7.13212 13.3103 10.8869 13.3103 14.6106 12.9167C15.6462 12.7713 16.7714 12.136 17.1114 11.0914C17.6385 8.38988 17.6355 5.61163 17.1024 2.91127ZM6.96727 10.2571V3.74337L12.2708 7.00022C10.4836 8.09851 8.7478 9.16772 6.96727 10.2571Z" fill="currentColor"/>
</svg>
