<svg width="30" height="30" viewBox="0 0 30 30" xmlns="http://www.w3.org/2000/svg">
<path d="M28.7925 27.4593L22.3706 21.0468C24.4215 18.6541 25.4658 15.56 25.2845 12.4139C25.1031 9.26778 23.7102 6.31419 21.398 4.17301C19.0858 2.03182 16.0341 0.869503 12.8833 0.929981C9.73253 0.990459 6.72767 2.26903 4.49933 4.49737C2.27099 6.72571 0.992413 9.73058 0.931935 12.8813C0.871457 16.0321 2.03378 19.0838 4.17496 21.396C6.31615 23.7083 9.26973 25.1012 12.4159 25.2825C15.562 25.4639 18.6561 24.4195 21.0487 22.3687L27.4612 28.7905C27.5484 28.8784 27.6521 28.9481 27.7663 28.9957C27.8806 29.0433 28.0031 29.0678 28.1269 29.0678C28.2506 29.0678 28.3732 29.0433 28.4874 28.9957C28.6016 28.9481 28.7053 28.8784 28.7925 28.7905C28.8804 28.7034 28.9501 28.5997 28.9977 28.4854C29.0453 28.3712 29.0698 28.2487 29.0698 28.1249C29.0698 28.0011 29.0453 27.8786 28.9977 27.7644C28.9501 27.6501 28.8804 27.5464 28.7925 27.4593ZM2.81436 13.1249C2.81436 11.0853 3.41918 9.09147 4.55233 7.39559C5.68548 5.69971 7.29607 4.37793 9.18044 3.5974C11.0648 2.81687 13.1383 2.61265 15.1387 3.01056C17.1392 3.40847 18.9767 4.39064 20.4189 5.83287C21.8611 7.2751 22.8433 9.11261 23.2412 11.113C23.6391 13.1135 23.4349 15.187 22.6544 17.0713C21.8738 18.9557 20.5521 20.5663 18.8562 21.6994C17.1603 22.8326 15.1665 23.4374 13.1269 23.4374C10.3918 23.4374 7.76879 22.3509 5.83482 20.4169C3.90085 18.483 2.81436 15.86 2.81436 13.1249Z" fill="currentColor"/>
<path d="M18.75 12.1875H14.0625V7.5C14.0625 7.25136 13.9637 7.0129 13.7879 6.83709C13.6121 6.66127 13.3736 6.5625 13.125 6.5625C12.8764 6.5625 12.6379 6.66127 12.4621 6.83709C12.2863 7.0129 12.1875 7.25136 12.1875 7.5V12.1875H7.5C7.25136 12.1875 7.0129 12.2863 6.83709 12.4621C6.66127 12.6379 6.5625 12.8764 6.5625 13.125C6.5625 13.3736 6.66127 13.6121 6.83709 13.7879C7.0129 13.9637 7.25136 14.0625 7.5 14.0625H12.1875V18.75C12.1875 18.9986 12.2863 19.2371 12.4621 19.4129C12.6379 19.5887 12.8764 19.6875 13.125 19.6875C13.3736 19.6875 13.6121 19.5887 13.7879 19.4129C13.9637 19.2371 14.0625 18.9986 14.0625 18.75V14.0625H18.75C18.9986 14.0625 19.2371 13.9637 19.4129 13.7879C19.5887 13.6121 19.6875 13.3736 19.6875 13.125C19.6875 12.8764 19.5887 12.6379 19.4129 12.4621C19.2371 12.2863 18.9986 12.1875 18.75 12.1875Z" fill="currentColor"/>
</svg>
