<svg width="60" height="60" viewBox="0 0 60 60" fill="none" xmlns="http://www.w3.org/2000/svg">
<g clip-path="url(#clip0_7988_2114)">
<path d="M37.9681 20.3288L33.1974 19.636L31.0636 15.3118C30.9483 15.0781 30.7591 14.8891 30.5254 14.7737C29.9384 14.4838 29.2276 14.7247 28.9377 15.3118L26.8039 19.636L22.0318 20.3288C21.7735 20.3661 21.5347 20.4875 21.3525 20.6743C20.8953 21.1429 20.9047 21.8935 21.3733 22.3506L24.8255 25.7159L24.0102 30.4682C23.9988 30.5343 23.9932 30.6013 23.9932 30.6683C23.9932 31.323 24.5239 31.8538 25.1785 31.8538C25.3712 31.8523 25.5606 31.804 25.7305 31.7128L29.9981 29.4737L34.2657 31.7128C34.4963 31.8351 34.7609 31.8777 35.0183 31.8344C35.6638 31.7254 36.0987 31.1138 35.9899 30.4682L35.1745 25.7159L38.6268 22.3506C38.8135 22.1684 38.935 21.9297 38.9723 21.6713C39.0655 21.0232 38.6161 20.4222 37.9681 20.3288ZM33.0709 24.4435C32.79 24.7168 32.6624 25.1112 32.7298 25.4972L33.2435 28.4964L30.55 27.0804C30.3795 26.9925 30.19 26.9473 29.9981 26.9486C29.8054 26.9501 29.616 26.9984 29.4461 27.0896L26.7526 28.5056L27.2677 25.5064C27.3351 25.1204 27.2075 24.726 26.9265 24.4527L24.7479 22.3282L27.7589 21.8909C28.1451 21.8349 28.479 21.5927 28.6519 21.2429L29.9981 18.5138L31.3442 21.2429C31.5171 21.5927 31.8511 21.8351 32.2373 21.8909L35.2496 22.3203L33.0709 24.4435Z" fill="white"/>
<path d="M29.9966 8.08838C21.477 8.08838 14.5703 14.995 14.5703 23.5147C14.5703 32.0343 21.477 38.941 29.9966 38.941C38.5124 38.9315 45.4135 32.0305 45.4229 23.5147C45.4229 14.995 38.5163 8.08838 29.9966 8.08838ZM29.9966 36.5701C22.7863 36.5701 16.9412 30.725 16.9412 23.5147C16.9412 16.3044 22.7863 10.4592 29.9966 10.4592C37.2037 10.4672 43.044 16.3077 43.0521 23.5147C43.0521 30.7251 37.2069 36.5701 29.9966 36.5701Z" fill="white"/>
<path d="M51.7101 26.7116L49.4921 27.5506C49.8372 28.4633 50.2666 29.5988 50.119 30.0532C49.953 30.5642 48.9481 31.2189 48.0603 31.797C47.0066 32.4846 45.808 33.2644 44.9847 34.397C44.1615 35.5298 43.773 36.9325 43.4397 38.1575C43.1763 39.1204 42.8523 40.319 42.4321 40.6245C42.0119 40.93 40.7949 40.8629 39.7979 40.8155C38.5242 40.7549 37.0806 40.6838 35.7227 41.1289C34.4055 41.5557 33.311 42.4461 32.3416 43.2272C31.5104 43.899 30.5674 44.6603 29.9998 44.6603C29.4322 44.6603 28.4889 43.899 27.6566 43.2246C26.6872 42.4408 25.5888 41.5531 24.2769 41.1277C23.5261 40.884 22.6845 40.7708 21.6269 40.7708C21.1382 40.7708 20.6601 40.7932 20.1991 40.8157C19.21 40.863 17.9797 40.9211 17.5728 40.6246C17.1658 40.3283 16.8273 39.1178 16.5639 38.1549C16.2306 36.9286 15.8539 35.5404 15.0201 34.3945C14.1863 33.2486 12.9996 32.4833 11.9432 31.7945C11.0569 31.2163 10.0518 30.5616 9.88583 30.0506C9.73828 29.5989 10.169 28.4622 10.5142 27.548C10.9713 26.3402 11.4875 24.9717 11.4875 23.5149C11.4875 22.0582 10.9698 20.6897 10.5128 19.4819C10.1677 18.5691 9.73828 17.4323 9.88449 16.9793C10.0505 16.4682 11.0554 15.8136 11.9432 15.2341C12.997 14.5465 14.1942 13.7667 15.0188 12.6354C15.8434 11.504 16.2305 10.0999 16.5639 8.87496C16.8273 7.91207 17.1512 6.71347 17.5714 6.40794C17.9916 6.1024 19.2087 6.16956 20.1991 6.21691C21.4727 6.27751 22.9177 6.34868 24.2822 5.90348C25.5993 5.47675 26.6925 4.58637 27.6633 3.80527C28.4879 3.13093 29.431 2.37084 29.9986 2.37084C30.5662 2.37084 31.5094 3.1308 32.3404 3.80514C33.3098 4.58877 34.4082 5.47662 35.7214 5.90335C37.0807 6.34453 38.5256 6.27604 39.8046 6.21678C40.7937 6.17063 42.024 6.1127 42.4309 6.4078C42.8378 6.7029 43.1699 7.9106 43.4333 8.87482C43.7665 10.1011 44.1432 11.4894 44.977 12.6353C45.8108 13.7812 46.9975 14.5478 48.0539 15.2353C48.9404 15.8134 49.9453 16.4681 50.1126 16.9791C50.2602 17.4322 49.8294 18.5689 49.4843 19.4817C49.0272 20.6895 48.5096 22.0594 48.5096 23.5148C48.5096 24.9702 49.0273 26.3401 49.4843 27.5479L50.5933 27.1291L51.7022 26.7102C51.2794 25.5934 50.8803 24.5383 50.8803 23.5148C50.8803 22.4913 51.2755 21.4364 51.7009 20.3194C52.2502 18.8705 52.7704 17.4915 52.366 16.2469C51.9406 14.939 50.6222 14.0802 49.3472 13.249C48.4252 12.6445 47.461 12.0202 46.8934 11.2404C46.3257 10.4607 46.0136 9.33192 45.7198 8.25319C45.3049 6.72792 44.9137 5.28693 43.8192 4.49139C42.7247 3.69585 41.256 3.77491 39.686 3.84861C38.5625 3.90132 37.3995 3.95657 36.4525 3.64836C35.5569 3.35727 34.6783 2.64734 33.83 1.96109C32.6327 0.997135 31.405 0 29.9984 0C28.5918 0 27.3642 0.997135 26.1656 1.96257C25.3173 2.64882 24.4389 3.3574 23.5431 3.64849C22.5962 3.95536 21.4844 3.904 20.3096 3.84875C18.7395 3.77504 17.2565 3.70521 16.1751 4.49152C15.0937 5.27783 14.6894 6.73059 14.2745 8.25452C13.9807 9.33326 13.6779 10.4489 13.1009 11.2418C12.5239 12.0346 11.5756 12.6459 10.6471 13.2504C9.37215 14.0815 8.05369 14.9403 7.6283 16.2482C7.22391 17.4929 7.74415 18.8666 8.29341 20.3221C8.71493 21.4391 9.11397 22.494 9.11397 23.5161C9.11397 24.5383 8.71881 25.5932 8.29341 26.7116C7.74415 28.1604 7.22391 29.5408 7.6283 30.7841C8.05369 32.0933 9.37215 32.9521 10.6471 33.7833C11.5691 34.3878 12.5333 35.0121 13.0996 35.7919C13.666 36.5716 13.9794 37.7004 14.2731 38.7791C14.526 39.7116 14.7724 40.6126 15.1754 41.3541L10.3732 53.6351C10.135 54.245 10.4364 54.9325 11.0463 55.1706C11.228 55.2415 11.4243 55.2665 11.6179 55.2433L18.3353 54.4399L22.7227 59.5846C23.148 60.0824 23.8963 60.1411 24.3941 59.7157C24.5437 59.5878 24.6592 59.4246 24.7301 59.2408L29.5179 46.9915C29.8367 47.0446 30.162 47.0446 30.4808 46.9915L35.2673 59.2408C35.5058 59.8506 36.1934 60.1514 36.8031 59.9129C36.9851 59.8417 37.1465 59.7267 37.2733 59.5781L41.6608 54.4334L48.3781 55.2368C49.0283 55.3137 49.6177 54.8488 49.6946 54.1987C49.7172 54.008 49.693 53.8145 49.6242 53.6351L44.8201 41.3515C45.2231 40.61 45.4681 39.7091 45.7224 38.7766C46.0148 37.6978 46.3176 36.5822 46.8959 35.7893C47.4741 34.9964 48.4212 34.3852 49.3497 33.7807C50.6247 32.9496 51.9445 32.0908 52.3685 30.7829C52.7729 29.5382 52.254 28.1657 51.7101 26.7116ZM23.2375 56.5395L19.7246 52.4181C19.467 52.1164 19.0754 51.9637 18.6815 52.0111L13.3022 52.6553L17.0812 42.9901C18.0229 43.2904 19.1411 43.2377 20.3081 43.1825C20.7428 43.1613 21.192 43.1403 21.6252 43.1403C22.426 43.1403 23.0359 43.2167 23.543 43.3814C24.4386 43.6725 25.3159 44.3811 26.1655 45.0687C26.5606 45.3861 26.9558 45.7062 27.3614 45.9906L23.2375 56.5395ZM46.6944 52.6553L41.3165 52.0111C40.9224 51.9641 40.5307 52.1172 40.2733 52.4194L36.7591 56.5408L32.6325 45.9932C33.0383 45.7061 33.436 45.386 33.8284 45.0712C34.6767 44.3849 35.5552 43.6764 36.4509 43.3853C37.3967 43.0784 38.507 43.1298 39.6858 43.185C40.8646 43.2404 41.971 43.2916 42.9128 42.9927L46.6944 52.6553Z" fill="white"/>
</g>
<defs>
<clipPath id="clip0_7988_2114">
<rect width="60" height="60" fill="white"/>
</clipPath>
</defs>
</svg>
