<svg width="75" height="75" viewBox="0 0 75 75" fill="none" xmlns="http://www.w3.org/2000/svg">
<path d="M46.7773 17.2827C46.6421 16.8641 46.3775 16.4993 46.0217 16.2408C45.6659 15.9823 45.2372 15.8435 44.7974 15.8443H40.7397L39.4858 11.9852C39.35 11.5671 39.0852 11.2028 38.7296 10.9444C38.3739 10.686 37.9456 10.5469 37.506 10.5469C37.0664 10.5469 36.638 10.686 36.2824 10.9444C35.9267 11.2028 35.662 11.5671 35.5261 11.9852L34.2722 15.8443H30.2146C29.7749 15.8444 29.3466 15.9835 28.991 16.2419C28.6353 16.5003 28.3706 16.8647 28.2347 17.2828C28.0989 17.7009 28.0988 18.1513 28.2347 18.5694C28.3705 18.9875 28.6352 19.3519 28.9908 19.6103L32.2735 21.9952L31.0196 25.8543C30.8832 26.2725 30.8828 26.7232 31.0185 27.1416C31.1542 27.5601 31.419 27.9247 31.7749 28.1833C32.1308 28.4418 32.5595 28.5809 32.9993 28.5806C33.4392 28.5803 33.8677 28.4407 34.2232 28.1817L37.506 25.7968L40.7887 28.1818C41.1443 28.4402 41.5727 28.5794 42.0123 28.5794C42.4519 28.5794 42.8803 28.4402 43.236 28.1818C43.5916 27.9234 43.8564 27.5591 43.9922 27.141C44.1281 26.7228 44.1281 26.2725 43.9923 25.8543L42.7384 21.9952L46.0211 19.6102C46.3774 19.3523 46.6426 18.9879 46.7785 18.5696C46.9144 18.1513 46.914 17.7007 46.7773 17.2827ZM40.6719 20.5995C40.4717 20.745 40.3227 20.9501 40.2462 21.1855C40.1697 21.4209 40.1697 21.6744 40.2462 21.9098L41.5141 25.8119L38.1944 23.4003C37.9943 23.255 37.7533 23.1767 37.506 23.1767C37.2586 23.1767 37.0176 23.255 36.8175 23.4003L33.4981 25.8119L34.766 21.9098C34.8425 21.6744 34.8425 21.4209 34.766 21.1855C34.6895 20.9501 34.5405 20.745 34.3403 20.5995L31.0212 18.1881H35.1238C35.3713 18.1881 35.6125 18.1098 35.8127 17.9643C36.0129 17.8188 36.162 17.6137 36.2384 17.3783L37.506 13.4764L38.7738 17.3785C38.8503 17.6138 38.9993 17.819 39.1995 17.9644C39.3998 18.1099 39.6409 18.1882 39.8884 18.1882H43.991L40.6719 20.5995Z" fill="white"/>
<path d="M22.9583 33.9822C23.257 33.9819 23.5514 33.9109 23.8174 33.7751C24.0835 33.6393 24.3136 33.4426 24.4892 33.2009C24.6647 32.9592 24.7805 32.6794 24.8273 32.3844C24.8741 32.0894 24.8504 31.7875 24.7583 31.5034L23.8196 28.6147L26.2771 26.8294C26.6004 26.5944 26.8411 26.2631 26.9646 25.883C27.0881 25.5029 27.0881 25.0934 26.9646 24.7133C26.8411 24.3331 26.6004 24.0019 26.277 23.7669C25.9537 23.532 25.5642 23.4055 25.1645 23.4055H22.1272L21.1885 20.5168C21.065 20.1367 20.8243 19.8054 20.5009 19.5704C20.1776 19.3355 19.7881 19.209 19.3884 19.209C18.9887 19.209 18.5993 19.3355 18.2759 19.5704C17.9526 19.8054 17.7119 20.1367 17.5883 20.5168L16.6497 23.4056H13.6122C13.2124 23.4054 12.8229 23.5319 12.4994 23.7668C12.1759 24.0016 11.9351 24.3329 11.8115 24.7131C11.6879 25.0932 11.6878 25.5028 11.8113 25.883C11.9348 26.2632 12.1755 26.5945 12.4989 26.8295L14.9563 28.6149L14.0179 31.5035C13.8944 31.8837 13.8944 32.2931 14.0179 32.6732C14.1414 33.0534 14.3821 33.3846 14.7054 33.6196C15.0288 33.8545 15.4182 33.9811 15.8178 33.9811C16.2175 33.9812 16.607 33.8547 16.9303 33.6198L19.3878 31.8343L21.8452 33.6198C22.1686 33.8553 22.5583 33.9822 22.9583 33.9822ZM18.6994 29.4377L16.6765 30.9082L17.4493 28.5299C17.5259 28.2945 17.5259 28.0409 17.4494 27.8055C17.3729 27.5701 17.2238 27.3649 17.0235 27.2195L15.0006 25.7498H17.5012C17.7486 25.7498 17.9897 25.6714 18.1899 25.526C18.3901 25.3806 18.5392 25.1755 18.6156 24.9402L19.3884 22.5618L20.1612 24.9402C20.2377 25.1755 20.3867 25.3806 20.5869 25.526C20.7871 25.6714 21.0282 25.7498 21.2757 25.7498H23.7761L21.7532 27.2196C21.553 27.3651 21.4039 27.5702 21.3275 27.8056C21.251 28.041 21.251 28.2945 21.3275 28.5299L22.1002 30.9082L20.0771 29.4383C19.877 29.2927 19.6359 29.2143 19.3884 29.2142C19.141 29.2141 18.8998 29.2923 18.6996 29.4377H18.6994Z" fill="white"/>
<path d="M15.6872 38.6394H12.6497L11.7111 35.7508C11.5876 35.3706 11.3469 35.0393 11.0236 34.8044C10.7002 34.5694 10.3108 34.4429 9.91106 34.4429C9.51135 34.4429 9.12191 34.5694 8.79856 34.8044C8.4752 35.0393 8.23454 35.3706 8.11105 35.7508L7.17224 38.6396H4.13488C3.73519 38.6396 3.34575 38.7661 3.02239 39.0011C2.69903 39.236 2.45835 39.5673 2.33483 39.9474C2.21131 40.3275 2.21131 40.737 2.33481 41.1172C2.45831 41.4973 2.69898 41.8286 3.02233 42.0635L5.47976 43.8489L4.54108 46.7377C4.41754 47.1178 4.41752 47.5273 4.54102 47.9075C4.66451 48.2876 4.90519 48.6189 5.22856 48.8539C5.55193 49.0888 5.94138 49.2154 6.34109 49.2154C6.7408 49.2154 7.13026 49.0889 7.45363 48.8539L9.91106 47.0684L12.3685 48.8539C12.6919 49.0891 13.0814 49.2158 13.4813 49.2159C13.8811 49.216 14.2708 49.0894 14.5942 48.8544C14.9177 48.6194 15.1585 48.2879 15.2819 47.9076C15.4054 47.5273 15.4052 47.1176 15.2815 46.7374L14.3429 43.8487L16.8004 42.0634C17.1238 41.8284 17.3645 41.497 17.4879 41.1168C17.6114 40.7366 17.6114 40.3271 17.4878 39.9469C17.3641 39.5667 17.1233 39.2355 16.7999 39.0006C16.4764 38.7657 16.087 38.6393 15.6872 38.6394ZM12.2759 42.4529C12.0756 42.5983 11.9265 42.8035 11.85 43.0389C11.7735 43.2743 11.7735 43.5279 11.8501 43.7633L12.6229 46.1422L10.5998 44.6717C10.3997 44.5264 10.1587 44.4481 9.91135 44.4481C9.66401 44.4481 9.42302 44.5264 9.22287 44.6717L7.19919 46.1422L7.9719 43.7633C8.0484 43.5279 8.04841 43.2744 7.97194 43.039C7.89547 42.8036 7.74644 42.5985 7.54621 42.453L5.52326 40.9832H8.02375C8.2712 40.9832 8.5123 40.9049 8.71249 40.7594C8.91269 40.614 9.06171 40.4089 9.1382 40.1736L9.91106 37.7953L10.6838 40.1736C10.7603 40.4089 10.9093 40.614 11.1095 40.7594C11.3097 40.9049 11.5508 40.9832 11.7982 40.9832H14.2988L12.2759 42.4529Z" fill="white"/>
<path d="M70.7661 38.6394H67.7286L66.7899 35.7508C66.6664 35.3706 66.4258 35.0393 66.1024 34.8044C65.7791 34.5694 65.3896 34.4429 64.9899 34.4429C64.5902 34.4429 64.2008 34.5694 63.8774 34.8044C63.5541 35.0393 63.3134 35.3706 63.1899 35.7508L62.2511 38.6396H59.2137C58.814 38.6394 58.4244 38.7659 58.101 39.0007C57.7775 39.2356 57.5367 39.5669 57.4131 39.9471C57.2895 40.3272 57.2894 40.7368 57.4129 41.117C57.5364 41.4972 57.7771 41.8285 58.1005 42.0635L60.5579 43.8489L59.6192 46.7377C59.4957 47.1178 59.4956 47.5273 59.6191 47.9075C59.7426 48.2876 59.9833 48.6189 60.3067 48.8539C60.6301 49.0888 61.0195 49.2154 61.4192 49.2154C61.8189 49.2154 62.2084 49.0889 62.5318 48.8539L64.9892 47.0684L67.4466 48.8539C67.77 49.0894 68.1596 49.2164 68.5597 49.2166C68.9597 49.2168 69.3495 49.0903 69.6731 48.8552C69.9968 48.6201 70.2376 48.2885 70.3611 47.908C70.4845 47.5276 70.4843 47.1177 70.3603 46.7374L69.4218 43.8487L71.8792 42.0634C72.2026 41.8284 72.4433 41.497 72.5668 41.1168C72.6903 40.7366 72.6902 40.3271 72.5666 39.9469C72.443 39.5667 72.2022 39.2355 71.8787 39.0006C71.5552 38.7657 71.1657 38.6393 70.7659 38.6394H70.7661ZM67.3548 42.4529C67.1545 42.5983 67.0054 42.8035 66.9289 43.0389C66.8524 43.2743 66.8524 43.5279 66.9289 43.7633L67.7018 46.1422L65.6787 44.6717C65.4785 44.5264 65.2375 44.4481 64.9902 44.4481C64.7429 44.4481 64.5019 44.5264 64.3017 44.6717L62.278 46.1422L63.0508 43.7633C63.1273 43.5279 63.1273 43.2744 63.0508 43.039C62.9743 42.8036 62.8253 42.5985 62.6251 42.453L60.6021 40.9832H63.1026C63.3501 40.9832 63.5912 40.9049 63.7913 40.7594C63.9915 40.614 64.1406 40.4089 64.2171 40.1736L64.9899 37.7953L65.7626 40.1736C65.8391 40.4089 65.9881 40.614 66.1883 40.7594C66.3885 40.9049 66.6296 40.9832 66.8771 40.9832H69.3777L67.3548 42.4529Z" fill="white"/>
<path d="M59.1847 33.9818C59.4835 33.9816 59.778 33.9107 60.0441 33.775C60.3102 33.6393 60.5405 33.4425 60.7161 33.2008C60.8916 32.9591 61.0076 32.6793 61.0544 32.3842C61.1012 32.0891 61.0775 31.7872 60.9853 31.503L60.0468 28.6143L62.5042 26.829C62.8276 26.594 63.0683 26.2627 63.1918 25.8825C63.3153 25.5022 63.3152 25.0927 63.1916 24.7125C63.068 24.3324 62.8272 24.0011 62.5037 23.7662C62.1802 23.5313 61.7907 23.4049 61.3909 23.4051H58.3536L57.4149 20.5164C57.2914 20.1362 57.0508 19.8049 56.7274 19.57C56.4041 19.335 56.0146 19.2085 55.6149 19.2085C55.2152 19.2085 54.8258 19.335 54.5024 19.57C54.1791 19.8049 53.9384 20.1362 53.8149 20.5164L52.8761 23.4052H49.8387C49.439 23.4051 49.0494 23.5315 48.726 23.7664C48.4025 24.0012 48.1617 24.3325 48.0381 24.7127C47.9145 25.0928 47.9144 25.5024 48.0379 25.8826C48.1614 26.2628 48.4021 26.5942 48.7255 26.8291L51.1829 28.6145L50.2442 31.5033C50.1207 31.8835 50.1206 32.2929 50.2441 32.6731C50.3676 33.0533 50.6083 33.3846 50.9317 33.6195C51.2551 33.8545 51.6445 33.981 52.0442 33.981C52.4439 33.981 52.8334 33.8545 53.1568 33.6196L55.6142 31.8341L58.0716 33.6196C58.395 33.855 58.7847 33.9819 59.1847 33.9818ZM54.926 29.4373L52.903 30.9079L53.6758 28.5289C53.7523 28.2936 53.7523 28.04 53.6758 27.8046C53.5993 27.5692 53.4503 27.3641 53.2501 27.2186L51.2271 25.7488H53.7276C53.9751 25.7488 54.2162 25.6705 54.4163 25.525C54.6165 25.3796 54.7656 25.1745 54.8421 24.9392L55.6149 22.5609L56.3876 24.9392C56.4641 25.1745 56.6131 25.3796 56.8133 25.525C57.0135 25.6705 57.2546 25.7488 57.5021 25.7488H60.0027L57.9798 27.2185C57.7795 27.364 57.6304 27.5691 57.5539 27.8045C57.4774 28.0399 57.4774 28.2935 57.5539 28.5289L58.3268 30.9079L56.3037 29.4373C56.1035 29.2919 55.8624 29.2135 55.6149 29.2135C55.3675 29.2135 55.1263 29.2919 54.9261 29.4373H54.926Z" fill="white"/>
<path d="M51.5625 44.6338H43.3594V38.7744C43.3579 37.5317 42.8636 36.3402 41.9849 35.4614C41.1061 34.5827 39.9146 34.0883 38.6719 34.0869H36.3281C36.0461 34.0869 35.7735 34.1887 35.5604 34.3735C35.3473 34.5583 35.208 34.8137 35.1681 35.093L34.7373 38.1082C34.541 39.4773 34.0258 40.7811 33.2332 41.9146C32.4406 43.0481 31.3929 43.9795 30.1743 44.6338H21.0938C20.7829 44.6338 20.4849 44.7573 20.2651 44.977C20.0453 45.1968 19.9219 45.4949 19.9219 45.8057V62.2119C19.9219 62.5227 20.0453 62.8208 20.2651 63.0406C20.4849 63.2603 20.7829 63.3838 21.0938 63.3838H30.114L30.8811 63.8953C32.6724 65.0919 34.7786 65.7296 36.9328 65.7275H50.3906C51.0694 65.7279 51.7338 65.5316 52.3035 65.1624C52.8731 64.7933 53.3236 64.267 53.6006 63.6472C53.8775 63.0275 53.969 62.3408 53.864 61.6701C53.759 60.9995 53.462 60.3736 53.0089 59.8682C53.5867 59.2242 53.9062 58.3896 53.9062 57.5244C53.9062 56.6593 53.5867 55.8246 53.0089 55.1807C53.4992 54.6342 53.8058 53.9477 53.8855 53.2179C53.9652 52.4881 53.8141 51.7516 53.4533 51.1122C54.094 50.7029 54.5848 50.097 54.8521 49.3852C55.1194 48.6735 55.1487 47.8943 54.9357 47.1644C54.7227 46.4346 54.2788 45.7935 53.6706 45.3372C53.0625 44.881 52.3228 44.6341 51.5625 44.6338ZM22.2656 46.9775H29.2969V61.04H22.2656V46.9775ZM51.5625 49.3213H50.3906C50.0798 49.3213 49.7818 49.4448 49.562 49.6645C49.3422 49.8843 49.2188 50.1824 49.2188 50.4932C49.2188 50.804 49.3422 51.102 49.562 51.3218C49.7818 51.5416 50.0798 51.665 50.3906 51.665C50.7014 51.665 50.9995 51.7885 51.2193 52.0083C51.439 52.228 51.5625 52.5261 51.5625 52.8369C51.5625 53.1477 51.439 53.4458 51.2193 53.6656C50.9995 53.8853 50.7014 54.0088 50.3906 54.0088C50.0798 54.0088 49.7818 54.1323 49.562 54.352C49.3422 54.5718 49.2188 54.8699 49.2188 55.1807C49.2188 55.4915 49.3422 55.7895 49.562 56.0093C49.7818 56.2291 50.0798 56.3525 50.3906 56.3525C50.7014 56.3525 50.9995 56.476 51.2193 56.6958C51.439 56.9155 51.5625 57.2136 51.5625 57.5244C51.5625 57.8352 51.439 58.1333 51.2193 58.3531C50.9995 58.5728 50.7014 58.6963 50.3906 58.6963C50.0798 58.6963 49.7818 58.8198 49.562 59.0395C49.3422 59.2593 49.2188 59.5574 49.2188 59.8682C49.2188 60.179 49.3422 60.477 49.562 60.6968C49.7818 60.9166 50.0798 61.04 50.3906 61.04C50.7014 61.04 50.9995 61.1635 51.2193 61.3833C51.439 61.603 51.5625 61.9011 51.5625 62.2119C51.5625 62.5227 51.439 62.8208 51.2193 63.0406C50.9995 63.2603 50.7014 63.3838 50.3906 63.3838H36.9328C35.2414 63.3854 33.5876 62.8847 32.1812 61.9452L31.6406 61.5848V46.5021C33.0921 45.6523 34.333 44.4859 35.2709 43.0898C36.2088 41.6937 36.8195 40.1039 37.0575 38.439L37.3444 36.4299H38.6719C39.2932 36.4307 39.889 36.6778 40.3283 37.1172C40.7677 37.5566 41.0149 38.1523 41.0156 38.7737V45.8049C41.0156 46.1157 41.1391 46.4138 41.3589 46.6336C41.5786 46.8533 41.8767 46.9768 42.1875 46.9768H51.5625C51.8733 46.9768 52.1714 47.1003 52.3911 47.32C52.6109 47.5398 52.7344 47.8379 52.7344 48.1487C52.7344 48.4595 52.6109 48.7576 52.3911 48.9773C52.1714 49.1971 51.8733 49.3206 51.5625 49.3206V49.3213Z" fill="white"/>
</svg>
