<svg width="60" height="60" viewBox="0 0 60 60" fill="none" xmlns="http://www.w3.org/2000/svg">
<path d="M56.7091 50.9979L54.7293 45.4541C55.9249 43.9563 56.718 42.1779 57.0334 40.2875C57.3488 38.3971 57.176 36.4575 56.5314 34.6527C55.8869 32.8478 54.7918 31.2376 53.3502 29.9747C51.9087 28.7119 50.1683 27.8383 48.2944 27.4368L43.5178 14.0625H45C47.237 14.06 49.3816 13.1702 50.9634 11.5884C52.5452 10.0066 53.435 7.86199 53.4375 5.625V4.6875C53.4375 3.94158 53.1412 3.22621 52.6137 2.69876C52.0863 2.17132 51.3709 1.875 50.625 1.875C49.8791 1.875 49.1637 2.17132 48.6363 2.69876C48.1088 3.22621 47.8125 3.94158 47.8125 4.6875V5.625C47.8117 6.37066 47.5151 7.08555 46.9878 7.61281C46.4605 8.14008 45.7457 8.43666 45 8.4375H38.4375C37.7519 8.43744 37.0898 8.68784 36.5759 9.14161C36.0619 9.59538 35.7314 10.2213 35.6464 10.9016C35.5615 11.582 35.728 12.2699 36.1147 12.8361C36.5013 13.4023 37.0815 13.8078 37.7461 13.9762L39.5249 18.9567L24.647 32.4172L16.6962 31.9201L15.9954 31.8768C15.9762 31.8756 15.9568 31.875 15.9375 31.875C15.8658 31.875 15.7948 31.8782 15.7235 31.8804L11.6861 21.5625H14.0625C14.8082 21.5617 15.523 21.2651 16.0503 20.7378C16.5776 20.2105 16.8742 19.4957 16.875 18.75V18.5012C16.8721 17.825 16.6269 17.1722 16.1839 16.6613C15.7408 16.1505 15.1293 15.8154 14.4602 15.717L5.08523 14.3776C4.68633 14.3206 4.27984 14.35 3.89329 14.4638C3.50673 14.5776 3.14914 14.7731 2.84473 15.0372C2.54032 15.3012 2.2962 15.6275 2.12889 15.9941C1.96158 16.3607 1.875 16.7589 1.875 17.1619V18.75C1.87584 19.4957 2.17242 20.2105 2.69969 20.7378C3.22695 21.2651 3.94184 21.5617 4.6875 21.5625H5.92266L10.888 34.2511C10.3129 34.943 9.88653 35.7459 9.63539 36.6098C9.38425 37.4737 9.31374 38.38 9.42828 39.2724C9.54281 40.1647 9.83992 41.0239 10.3011 41.7964C10.7623 42.5689 11.3776 43.238 12.1088 43.7623L4.51699 50.6306C3.80226 50.6748 3.13122 50.9897 2.64041 51.5111C2.1496 52.0326 1.8759 52.7214 1.875 53.4375V55.3125C1.87584 56.0582 2.17242 56.773 2.69969 57.3003C3.22695 57.8276 3.94184 58.1242 4.6875 58.125H6.5625C7.30816 58.1242 8.02305 57.8276 8.55031 57.3003C9.07758 56.773 9.37416 56.0582 9.375 55.3125H50.625C50.6258 56.0582 50.9224 56.773 51.4497 57.3003C51.977 57.8276 52.6918 58.1242 53.4375 58.125H55.3125C56.0582 58.1242 56.773 57.8276 57.3003 57.3003C57.8276 56.773 58.1242 56.0582 58.125 55.3125V53.4375C58.1246 52.9422 57.9935 52.4558 57.7449 52.0274C57.4963 51.5991 57.139 51.2439 56.7091 50.9979ZM53.0508 32.3307C54.3373 33.8295 55.1176 35.6962 55.2804 37.6647C55.4431 39.6331 54.98 41.6027 53.9571 43.2923L49.0664 29.5989C50.6099 30.1468 51.9834 31.0885 53.0508 32.3307ZM54.5849 50.625H53.4375C53.2395 50.6251 53.0421 50.646 52.8485 50.6876L39.7678 14.0625H41.5268L54.5849 50.625ZM49.5703 47.0818C47.5571 47.9267 45.3123 48.0427 43.2227 47.4099C41.1331 46.7771 39.3298 45.4351 38.1237 43.6152L45.9684 43.125C46.6686 43.1207 47.3588 42.9593 47.9883 42.6527L49.5703 47.0818ZM42.6403 27.6797C39.803 28.5553 37.4242 30.5124 36.0183 33.1279L32.1851 32.8882L41.4572 24.3673L42.6403 27.6797ZM43.2715 29.447L44.7817 33.6757L38.1224 33.2593C39.3405 31.4259 41.1624 30.0771 43.2715 29.4472V29.447ZM38.4375 10.3125H45C46.2428 10.3111 47.4342 9.8168 48.313 8.93802C49.1918 8.05925 49.6861 6.86777 49.6875 5.625V4.6875C49.6875 4.43886 49.7863 4.2004 49.9621 4.02459C50.1379 3.84877 50.3764 3.75 50.625 3.75C50.8736 3.75 51.1121 3.84877 51.2879 4.02459C51.4637 4.2004 51.5625 4.43886 51.5625 4.6875V5.625C51.5605 7.36488 50.8685 9.03295 49.6382 10.2632C48.4079 11.4935 46.7399 12.1855 45 12.1875H38.4375C38.1889 12.1875 37.9504 12.0887 37.7746 11.9129C37.5988 11.7371 37.5 11.4986 37.5 11.25C37.5 11.0014 37.5988 10.7629 37.7746 10.5871C37.9504 10.4113 38.1889 10.3125 38.4375 10.3125ZM40.207 20.8678L40.7722 22.4498L29.5903 32.7259L27.261 32.5802L40.207 20.8678ZM3.75 18.75V17.1619C3.75 16.914 3.84816 16.6762 4.02301 16.5005C4.19786 16.3248 4.43518 16.2256 4.68305 16.2244C4.72888 16.2244 4.77466 16.2277 4.82004 16.2341L14.195 17.5734C14.4181 17.6063 14.6219 17.718 14.7696 17.8883C14.9173 18.0585 14.999 18.2761 15 18.5016V18.75C14.9997 18.9986 14.9009 19.2368 14.7251 19.4126C14.5493 19.5884 14.3111 19.6872 14.0625 19.6875H4.6875C4.43895 19.6872 4.20065 19.5884 4.0249 19.4126C3.84914 19.2368 3.75028 18.9986 3.75 18.75ZM9.67266 21.5625L13.843 32.2198C13.3288 32.3934 12.8383 32.6305 12.3827 32.9256L7.93605 21.5625H9.67266ZM11.25 38.4375C11.2514 37.1995 11.7419 36.0122 12.6147 35.1342C13.4875 34.2562 14.6719 33.7587 15.9098 33.75L45.468 35.5975L47.3501 40.8673C46.9214 41.1176 46.4339 41.2497 45.9375 41.25C45.918 41.25 45.8985 41.25 45.8789 41.2519L19.4256 42.9055L18.0247 40.3204C18.4674 39.8282 18.7219 39.1955 18.7433 38.5339C18.7647 37.8723 18.5516 37.2245 18.1416 36.7048C17.7316 36.1851 17.1511 35.8271 16.5028 35.6939C15.8544 35.5607 15.1798 35.661 14.5981 35.977C14.0165 36.2929 13.5653 36.8043 13.3241 37.4208C13.083 38.0372 13.0675 38.7191 13.2803 39.3458C13.4932 39.9726 13.9207 40.504 14.4874 40.8461C15.0541 41.1882 15.7234 41.319 16.3772 41.2154L17.3629 43.0345L16.5804 43.0834L15.9098 43.125C14.6719 43.1163 13.4875 42.6188 12.6147 41.7408C11.7419 40.8628 11.2514 39.6755 11.25 38.4375ZM15.9375 39.375C15.7521 39.375 15.5708 39.32 15.4167 39.217C15.2625 39.114 15.1423 38.9676 15.0714 38.7963C15.0004 38.625 14.9818 38.4365 15.018 38.2546C15.0542 38.0727 15.1435 37.9057 15.2746 37.7746C15.4057 37.6435 15.5727 37.5542 15.7546 37.518C15.9365 37.4818 16.125 37.5004 16.2963 37.5714C16.4676 37.6423 16.614 37.7625 16.717 37.9167C16.82 38.0708 16.875 38.2521 16.875 38.4375C16.8747 38.6861 16.7759 38.9244 16.6001 39.1001C16.4243 39.2759 16.1861 39.3747 15.9375 39.375ZM15.9375 45C15.9568 45 15.9762 45 15.9954 44.9982L16.2532 44.9822L8.8418 51.7927C8.45022 51.2504 7.87859 50.8651 7.22906 50.7055L13.897 44.6734C14.5556 44.8898 15.2443 45 15.9375 45ZM7.5 55.3125C7.49972 55.5611 7.40086 55.7994 7.2251 55.9751C7.04935 56.1509 6.81105 56.2497 6.5625 56.25H4.6875C4.43895 56.2497 4.20065 56.1509 4.0249 55.9751C3.84914 55.7994 3.75028 55.5611 3.75 55.3125V53.4375C3.75028 53.1889 3.84914 52.9506 4.0249 52.7749C4.20065 52.5991 4.43895 52.5003 4.6875 52.5H6.5625C6.81105 52.5003 7.04935 52.5991 7.2251 52.7749C7.40086 52.9506 7.49972 53.1889 7.5 53.4375V55.3125ZM9.82301 53.4375L18.6196 45.3538L19.5805 47.1266L18.7567 47.5732C18.6473 47.6312 18.5504 47.7103 18.4717 47.806C18.393 47.9016 18.3341 48.0119 18.2983 48.1304C18.2625 48.249 18.2505 48.3735 18.2631 48.4967C18.2756 48.6199 18.3125 48.7394 18.3715 48.8483C18.4305 48.9572 18.5105 49.0533 18.6069 49.1311C18.7033 49.2089 18.8141 49.2668 18.933 49.3015C19.0519 49.3362 19.1765 49.347 19.2996 49.3333C19.4226 49.3196 19.5418 49.2816 19.6501 49.2216L22.947 47.4346C23.0564 47.3766 23.1532 47.2975 23.2319 47.2018C23.3106 47.1062 23.3696 46.9959 23.4054 46.8773C23.4412 46.7588 23.4531 46.6343 23.4406 46.5111C23.428 46.3879 23.3912 46.2684 23.3321 46.1595C23.2731 46.0506 23.1931 45.9545 23.0967 45.8767C23.0004 45.7989 22.8895 45.741 22.7706 45.7063C22.6518 45.6716 22.5272 45.6608 22.4041 45.6745C22.281 45.6882 22.1618 45.7262 22.0535 45.7862L21.2289 46.2332L20.4102 44.7223L36.0203 43.7467C37.3342 46.2006 39.5111 48.0804 42.1303 49.0229C44.7494 49.9654 47.625 49.9036 50.2013 48.8495L51.2222 51.7082C50.8349 52.2014 50.6246 52.8104 50.625 53.4375H9.82301ZM56.25 55.3125C56.2497 55.5611 56.1509 55.7994 55.9751 55.9751C55.7994 56.1509 55.5611 56.2497 55.3125 56.25H53.4375C53.1889 56.2497 52.9506 56.1509 52.7749 55.9751C52.5991 55.7994 52.5003 55.5611 52.5 55.3125V53.4375C52.5003 53.1889 52.5991 52.9506 52.7749 52.7749C52.9506 52.5991 53.1889 52.5003 53.4375 52.5H55.3125C55.5611 52.5003 55.7994 52.5991 55.9751 52.7749C56.1509 52.9506 56.2497 53.1889 56.25 53.4375V55.3125Z" fill="white"/>
</svg>
