<svg width="60" height="60" viewBox="0 0 60 60" fill="none" xmlns="http://www.w3.org/2000/svg">
<g clip-path="url(#clip0_7988_2150)">
<path d="M3 36H3.99996V43C4.00324 45.76 6.23988 47.9966 9 48C10.0855 47.9964 11.1396 47.6358 12 46.9741V48C12 50.7614 14.2386 53.0001 17 53.0001C19.7614 53.0001 22.0001 50.7614 22.0001 48V36H38V48C38 50.7614 40.2387 53.0001 43.0001 53.0001C45.7615 53.0001 48.0001 50.7614 48.0001 48V46.9741C48.8605 47.6358 49.9146 47.9964 51.0001 48C53.7601 47.9968 55.9968 45.7601 56.0002 43V36H57.0001C58.6569 36 60.0001 34.6568 60.0001 33V27C60.0001 25.3432 58.657 24 57.0001 24H56.0002V17.0001C55.9969 14.2401 53.7602 12.0034 51.0001 12C49.9146 12.0037 48.8605 12.3643 48.0001 13.026V12C48.0001 9.23863 45.7615 7 43.0001 7C40.2387 7 38 9.23863 38 12V24H22V12C22 9.23863 19.7613 7 16.9999 7C14.2385 7 12 9.23863 12 12V13.026C11.1396 12.3643 10.0855 12.0037 9 12C6.24 12.0033 4.00336 14.24 3.99996 17.0001V24H3C1.3432 24 0 25.3432 0 27V33C0 34.6568 1.3432 36 3 36ZM57 26.0001C57.5523 26.0001 58 26.4479 58 27V33C58 33.5523 57.5523 34 57 34H56V26H57V26.0001ZM51 14.0001C52.6568 14.0001 54 15.3433 54 17.0001V43.0001C54 44.6569 52.6568 46.0001 51 46.0001C49.3432 46.0001 48 44.6569 48 43.0001V17.0001C48 15.3432 49.3432 14.0001 51 14.0001ZM40 12C40 10.3432 41.3432 9.00004 43 9.00004C44.6568 9.00004 46 10.3432 46 12V48C46 49.6568 44.6568 51 43 51C41.3432 51 40 49.6568 40 48V12ZM38 26.0001V34.0001H22V26.0001H38ZM14 12C14 10.3432 15.3432 9.00004 17 9.00004C18.6568 9.00004 20 10.3432 20 12V48C20 49.6568 18.6568 51 17 51C15.3431 51 14 49.6568 14 48V12ZM6 17.0001C6 15.3432 7.3432 14.0001 9 14.0001C10.6568 14.0001 12 15.3433 12 17.0001V43.0001C12 44.6569 10.6568 46.0001 9 46.0001C7.3432 46.0001 6 44.6569 6 43.0001V17.0001ZM2.00004 27C2.00004 26.4477 2.44781 26.0001 3 26.0001H3.99996V34.0001H3C2.4477 34.0001 2.00004 33.5525 2.00004 33.0002V27Z" fill="white"/>
</g>
<defs>
<clipPath id="clip0_7988_2150">
<rect width="60" height="60" fill="white"/>
</clipPath>
</defs>
</svg>
