<svg width="94" height="80" viewBox="0 0 94 80" fill="none" xmlns="http://www.w3.org/2000/svg">
<g clip-path="url(#clip0_7953_240)">
<path d="M4.83327 65.2628V68.6244H11.1969V73.3408H4.83327V79.6037H0V60.5464H4.83327H11.3244V65.2628H4.83327Z" fill="white"/>
<path d="M18.3137 60.5464H13.4805V79.591H18.3137V60.5464Z" fill="white"/>
<path d="M33.0666 65.2628H28.9347V79.6037H24.1397V65.2628H20.0078V60.5464H28.9347H33.0666V65.2628Z" fill="white"/>
<path d="M49.4312 60.5464V79.6037H45.7202L39.5989 69.7491V79.6037H34.7656V60.5464H38.5149L44.6362 70.401V60.5464H49.4312Z" fill="white"/>
<path d="M64.0307 75.0279V79.6037H53.9051H52.4258V60.5464H57.259H63.8904V65.1222H57.259V67.8191H63.2145V72.1393H57.259V75.0279H64.0307Z" fill="white"/>
<path d="M65.1523 73.5072H69.9856C69.9856 74.8364 70.7635 75.386 72.3576 75.386C73.7859 75.386 74.347 74.8109 74.347 74.0823C74.347 73.1237 72.9952 72.6891 71.3757 72.1779C68.7358 71.3343 65.3946 70.005 65.3946 66.0044C65.3946 62.1188 68.417 60.1504 71.924 60.1504C75.482 60.1504 78.6447 62.0548 78.6447 66.5156H73.8369C73.8369 65.4292 73.2375 64.7773 71.924 64.7773C70.7635 64.7773 70.2279 65.3269 70.2279 66.0044C70.2279 67.0652 71.5287 67.4998 73.1993 68.075C75.8136 68.9186 79.1548 70.2223 79.1548 74.1718C79.1548 78.0574 76.1324 80.0258 72.3321 80.0258C68.3915 80.0002 65.1523 78.0957 65.1523 73.5072Z" fill="white"/>
<path d="M79.9844 73.5072H84.8176C84.8176 74.8364 85.5956 75.386 87.1896 75.386C88.6179 75.386 89.1791 74.8109 89.1791 74.0823C89.1791 73.1237 87.8273 72.6891 86.2077 72.1779C83.5679 71.3343 80.2267 70.005 80.2267 66.0044C80.2267 62.1188 83.2491 60.1504 86.756 60.1504C90.314 60.1504 93.4767 62.0548 93.4767 66.5156H88.6817C88.6817 65.4292 88.0823 64.7773 86.7688 64.7773C85.6083 64.7773 85.0727 65.3269 85.0727 66.0044C85.0727 67.0652 86.3735 67.4998 88.0441 68.075C90.6584 68.9186 93.9996 70.2223 93.9996 74.1718C93.9996 78.0574 90.9772 80.0258 87.1769 80.0258C83.2236 80.0002 79.9844 78.0957 79.9844 73.5072Z" fill="white"/>
<path d="M94 39.2139H64.2225H33.5523H29.0123H25.5054H23.0058H18.8612H18.4021H15.52H14.6911V46.052L10.1511 39.2139H6.64415V53.5932H10.7888V46.5633L15.5328 53.5932H18.4149H64.2225H94V39.2139ZM0 39.2139H4.14462V53.5932H0V39.2139Z" fill="#AE0B05"/>
<path d="M93.9873 0.498482H84.9584H73.4937V2.76082H82.5226V32.1713H84.9584V2.76082H93.9873V0.498482ZM61.4424 32.657C66.8113 32.657 71.415 29.4488 71.415 24.3362C71.415 18.5972 66.2247 16.9228 61.4807 15.0695C57.4126 13.5357 53.7653 12.1681 53.7653 8.0524C53.7653 4.66528 56.6602 2.31347 60.8048 2.31347C65.0004 2.31347 68.0738 4.80588 68.0738 8.64036H70.4713C70.4713 3.25931 66.0079 0 60.8175 0C55.7165 0 51.3806 3.11871 51.3806 8.0524C51.3806 14.0725 56.5709 15.6063 61.3149 17.4213C65.332 18.9168 68.992 20.3611 68.992 24.3362C68.992 27.915 65.8293 30.3563 61.4552 30.3563C56.3158 30.3563 52.9236 27.7744 52.9236 23.3903H50.4879C50.4751 29.3082 55.3084 32.657 61.4424 32.657ZM31.3843 29.8961V17.3191H45.2465V15.0567H31.3843V2.76082H46.3687V0.498482H31.3843H28.9868V32.1585H30.0198H46.5855V29.8961H31.3843ZM12.4084 29.8961H2.3975V17.3063H13.9259C18.6189 17.3063 20.6338 20.425 20.6338 23.5948C20.6338 28.0812 17.0886 29.8961 12.4084 29.8961ZM12.6507 2.76082C18.4786 2.76082 19.6264 6.58252 19.5881 8.65314C19.5244 12.0275 16.4127 15.0439 14.0407 15.0439H2.3975V2.76082H12.6507ZM17.8027 15.7214C18.6444 14.9033 21.8964 13.4846 21.9729 8.65314C22.0111 5.86675 20.3915 0.498482 12.6507 0.498482H2.3975H0V32.1585H0.446344H12.7144C18.4404 32.1585 23.0568 29.4999 23.0568 23.5948C23.0696 19.7603 21.6413 17.1785 17.8027 15.7214Z" fill="white"/>
</g>
<defs>
<clipPath id="clip0_7953_240">
<rect width="94" height="80" fill="white"/>
</clipPath>
</defs>
</svg>
