<svg width="0" height="0" class="hidden">
  <symbol xmlns="http://www.w3.org/2000/svg" viewBox="0 0 14 14" id="ic_amount_arr">
    <path d="M12.5945 14C12.991 14 13.3125 13.6785 13.3125 13.282V0.717922C13.3125 0.321428 12.991 0 12.5945 0L0.927866 6.4615C0.927866 6.4615 0.3894 6.99997 0.927866 7.53847C1.46633 8.0769 12.5945 14 12.5945 14Z" fill="currentColor"></path>
  </symbol>
  <symbol xmlns="http://www.w3.org/2000/svg" viewBox="0 0 16 17" id="ic_arr_hor">
    <path d="M4.07619 7.67566L10.6369 0.518732C11.0543 0.0632287 11.7309 0.0632287 12.1481 0.518732C12.5652 0.973829 12.5652 1.71195 12.1481 2.16701L6.34282 8.49981L12.1479 14.8324C12.5651 15.2877 12.5651 16.0257 12.1479 16.4808C11.7307 16.9361 11.0541 16.9361 10.6368 16.4808L4.07602 9.32376C3.86743 9.0961 3.76326 8.79805 3.76326 8.49984C3.76326 8.20149 3.86763 7.90321 4.07619 7.67566Z" fill="currentColor"></path>
  </symbol>
  <symbol xmlns="http://www.w3.org/2000/svg" viewBox="0 0 24 22" id="ic_arr_ver">
    <path d="M13.1881 5.18087L23.5074 14.6405C24.1642 15.2423 24.1642 16.2179 23.5074 16.8194C22.8512 17.4209 21.787 17.4209 21.1308 16.8194L11.9998 8.44903L2.86914 16.8191C2.21269 17.4206 1.14853 17.4206 0.492339 16.8191C-0.164113 16.2176 -0.164113 15.242 0.492339 14.6403L10.8118 5.18063C11.14 4.87987 11.5698 4.72967 11.9998 4.72967C12.43 4.72967 12.86 4.88017 13.1881 5.18087Z" fill="currentColor"></path>
  </symbol>
  <symbol xmlns="http://www.w3.org/2000/svg" viewBox="0 0 15 11" id="ic_check">
    <path d="M6.00072 7.193L13.1927 0L14.6077 1.414L6.00072 10.021L0.636719 4.657L2.05072 3.243L6.00072 7.193Z" fill="currentColor"></path>
  </symbol>
  <symbol xmlns="http://www.w3.org/2000/svg" viewBox="0 0 13 13" id="ic_close">
    <path d="M7.691 6.51071L12.7529 1.44861C13.0824 1.11934 13.0824 0.586962 12.7529 0.257693C12.4237 -0.0715749 11.8913 -0.0715749 11.562 0.257693L6.49993 5.31979L1.43799 0.257693C1.10856 -0.0715749 0.576335 -0.0715749 0.247067 0.257693C-0.0823556 0.586962 -0.0823556 1.11934 0.247067 1.44861L5.30901 6.51071L0.247067 11.5728C-0.0823556 11.9021 -0.0823556 12.4345 0.247067 12.7637C0.411161 12.928 0.626921 13.0105 0.842526 13.0105C1.05813 13.0105 1.27374 12.928 1.43799 12.7637L6.49993 7.70163L11.562 12.7637C11.7263 12.928 11.9419 13.0105 12.1575 13.0105C12.3731 13.0105 12.5887 12.928 12.7529 12.7637C13.0824 12.4345 13.0824 11.9021 12.7529 11.5728L7.691 6.51071Z" fill="currentColor"></path>
  </symbol>
  <symbol xmlns="http://www.w3.org/2000/svg" viewBox="0 0 24 24" id="ic_delete">
    <path d="M4 5H7V4C7 3.46957 7.21071 2.96086 7.58579 2.58579C7.96086 2.21071 8.46957 2 9 2H15C15.5304 2 16.0391 2.21071 16.4142 2.58579C16.7893 2.96086 17 3.46957 17 4V5H20C20.2652 5 20.5196 5.10536 20.7071 5.29289C20.8946 5.48043 21 5.73478 21 6C21 6.26522 20.8946 6.51957 20.7071 6.70711C20.5196 6.89464 20.2652 7 20 7H19V20C19 20.5304 18.7893 21.0391 18.4142 21.4142C18.0391 21.7893 17.5304 22 17 22H7C6.46957 22 5.96086 21.7893 5.58579 21.4142C5.21071 21.0391 5 20.5304 5 20V7H4C3.73478 7 3.48043 6.89464 3.29289 6.70711C3.10536 6.51957 3 6.26522 3 6C3 5.73478 3.10536 5.48043 3.29289 5.29289C3.48043 5.10536 3.73478 5 4 5ZM7 7V20H17V7H7ZM9 5H15V4H9V5ZM9 9H11V18H9V9ZM13 9H15V18H13V9Z" fill="currentColor"></path>
  </symbol>
  <symbol xmlns="http://www.w3.org/2000/svg" viewBox="0 0 22 22" id="ic_email">
    <path d="M11.6364 13.7795C11.4286 13.9093 11.1948 13.9613 10.987 13.9613C10.7792 13.9613 10.5455 13.9093 10.3377 13.7795L0 7.46777V15.8574C0 17.6496 1.45455 19.1041 3.24675 19.1041H18.7532C20.5455 19.1041 22 17.6496 22 15.8574V7.46777L11.6364 13.7795Z" fill="currentColor"></path>
    <path d="M18.7548 2.896H3.24833C1.71586 2.896 0.417157 3.98691 0.105469 5.44145L11.0146 12.0908L21.8977 5.44145C21.586 3.98691 20.2873 2.896 18.7548 2.896Z" fill="currentColor"></path>
  </symbol>
  <symbol xmlns="http://www.w3.org/2000/svg" viewBox="0 0 10 18" id="ic_fb">
    <path d="M9.30829 7.39171L9.02645 9.75829C9.01428 9.86822 8.96183 9.96974 8.87922 10.0433C8.7966 10.1168 8.68968 10.1571 8.57908 10.1564H6.11855V17.1801C6.11915 17.264 6.08656 17.3447 6.0279 17.4046C5.96923 17.4645 5.88925 17.4988 5.80539 17.5H3.29789C3.25618 17.4994 3.21499 17.4906 3.17668 17.4741C3.13836 17.4576 3.10368 17.4337 3.0746 17.4038C3.04552 17.3739 3.02261 17.3386 3.00719 17.2998C2.99178 17.261 2.98414 17.2196 2.98474 17.1779L2.99816 10.1564H1.13487C1.01622 10.1564 0.902429 10.1093 0.818531 10.0254C0.734633 9.94152 0.6875 9.82773 0.6875 9.70908V7.3425C0.6875 7.22385 0.734633 7.11006 0.818531 7.02616C0.902429 6.94227 1.01622 6.89513 1.13487 6.89513H2.98697V4.60013C2.98697 1.945 4.56618 0.5 6.87908 0.5H8.77368C8.89233 0.5 9.00612 0.547133 9.09002 0.631031C9.17392 0.714929 9.22105 0.828719 9.22105 0.947368V2.94039C9.22105 3.05904 9.17392 3.17283 9.09002 3.25673C9.00612 3.34063 8.89233 3.38776 8.77368 3.38776H7.61276C6.35566 3.40789 6.11855 4.0096 6.11855 4.90882V6.88842H8.8721C8.93493 6.8895 8.99682 6.90379 9.05374 6.93038C9.11067 6.95697 9.16136 6.99525 9.20251 7.04273C9.24366 7.09021 9.27435 7.14582 9.29257 7.20595C9.3108 7.26608 9.31615 7.32937 9.30829 7.39171Z" fill="currentColor"></path>
  </symbol>
  <symbol xmlns="http://www.w3.org/2000/svg" viewBox="0 0 18 18" id="ic_instagram">
    <path d="M12.4358 0.5H5.56421C4.22164 0.501775 2.93457 1.03589 1.98523 1.98523C1.03589 2.93457 0.501775 4.22164 0.5 5.56421V12.4358C0.501775 13.7784 1.03589 15.0654 1.98523 16.0148C2.93457 16.9641 4.22164 17.4982 5.56421 17.5H12.4358C13.7785 17.4988 15.066 16.9649 16.0154 16.0154C16.9649 15.066 17.4988 13.7785 17.5 12.4358V5.56421C17.4982 4.22164 16.9641 2.93457 16.0148 1.98523C15.0654 1.03589 13.7784 0.501775 12.4358 0.5ZM15.7911 12.4358C15.7911 13.3257 15.4376 14.1791 14.8083 14.8083C14.1791 15.4376 13.3257 15.7911 12.4358 15.7911H5.56421C4.67434 15.7911 3.82091 15.4376 3.19168 14.8083C2.56245 14.1791 2.20895 13.3257 2.20895 12.4358V5.56421C2.20895 4.67434 2.56245 3.82091 3.19168 3.19168C3.82091 2.56245 4.67434 2.20895 5.56421 2.20895H12.4358C13.3257 2.20895 14.1791 2.56245 14.8083 3.19168C15.4376 3.82091 15.7911 4.67434 15.7911 5.56421V12.4358Z" fill="currentColor"></path>
    <path d="M9.00143 4.60449C8.13147 4.60405 7.28093 4.86165 6.5574 5.3447C5.83387 5.82774 5.26987 6.51454 4.93674 7.31819C4.60362 8.12184 4.51634 9.00625 4.68595 9.85951C4.85557 10.7128 5.27445 11.4966 5.8896 12.1117C6.50476 12.7269 7.28854 13.1458 8.14181 13.3154C8.99507 13.485 9.87948 13.3977 10.6831 13.0646C11.4868 12.7315 12.1736 12.1675 12.6566 11.4439C13.1397 10.7204 13.3973 9.86985 13.3968 8.99989C13.3956 7.83452 12.9322 6.71722 12.1081 5.89318C11.2841 5.06914 10.1668 4.60568 9.00143 4.60449ZM9.00143 11.6841C8.47055 11.6841 7.95158 11.5267 7.51017 11.2317C7.06875 10.9368 6.72471 10.5176 6.52154 10.0271C6.31838 9.53661 6.26523 8.99691 6.3688 8.47622C6.47237 7.95554 6.72801 7.47726 7.10341 7.10186C7.4788 6.72647 7.95708 6.47082 8.47777 6.36725C8.99845 6.26368 9.53816 6.31684 10.0286 6.52C10.5191 6.72316 10.9383 7.0672 11.2333 7.50862C11.5282 7.95004 11.6856 8.469 11.6856 8.99989C11.6856 9.71178 11.4028 10.3945 10.8995 10.8979C10.3961 11.4013 9.71333 11.6841 9.00143 11.6841Z" fill="currentColor"></path>
    <path d="M13.423 5.69179C14.0234 5.69179 14.5101 5.20507 14.5101 4.60468C14.5101 4.00429 14.0234 3.51758 13.423 3.51758C12.8226 3.51758 12.3359 4.00429 12.3359 4.60468C12.3359 5.20507 12.8226 5.69179 13.423 5.69179Z" fill="currentColor"></path>
  </symbol>
  <symbol xmlns="http://www.w3.org/2000/svg" viewBox="0 0 22 22" id="ic_location">
    <path d="M11 0C6.4515 0 2.75 3.72717 2.75 8.30958C2.75 14.8207 10.2245 21.5435 10.5426 21.8258C10.6737 21.9422 10.8368 22 11 22C11.1632 22 11.3263 21.9423 11.4574 21.8268C11.7755 21.5435 19.25 14.8207 19.25 8.30958C19.25 3.72717 15.5485 0 11 0ZM11 12.8333C8.47275 12.8333 6.41667 10.7773 6.41667 8.25C6.41667 5.72275 8.47275 3.66667 11 3.66667C13.5273 3.66667 15.5833 5.72275 15.5833 8.25C15.5833 10.7773 13.5273 12.8333 11 12.8333Z" fill="currentColor"></path>
  </symbol>
  <symbol xmlns="http://www.w3.org/2000/svg" viewBox="0 0 24 24" id="ic_minus">
    <path d="M12 0C5.3828 0 0 5.3828 0 12C0 18.6172 5.3828 24 12 24C18.6172 24 24 18.6163 24 12C24 5.38373 18.6172 0 12 0ZM12 22.141C6.40898 22.141 1.85902 17.592 1.85902 12C1.85902 6.40805 6.40898 1.85902 12 1.85902C17.591 1.85902 22.141 6.40805 22.141 12C22.141 17.592 17.592 22.141 12 22.141Z" fill="currentColor"></path>
    <rect x="6" y="11" width="12" height="2" rx="1" fill="currentColor"></rect>
  </symbol>
  <symbol xmlns="http://www.w3.org/2000/svg" viewBox="0 0 14 14" id="ic_phone">
    <path d="M13.9933 11.0459C14.023 11.2732 13.9537 11.4708 13.7858 11.6387L11.8147 13.595C11.7257 13.6938 11.6097 13.7779 11.4664 13.847C11.3231 13.9161 11.1824 13.9606 11.0441 13.9803C11.0342 13.9803 11.0045 13.9829 10.955 13.9878C10.9057 13.9927 10.8415 13.9953 10.7625 13.9953C10.5747 13.9953 10.2708 13.9632 9.8509 13.8989C9.43098 13.8347 8.91721 13.6765 8.30961 13.4246C7.70186 13.1727 7.01271 12.7947 6.24206 12.2908C5.4714 11.787 4.65129 11.0953 3.7818 10.2159C3.09016 9.53418 2.51709 8.88206 2.06259 8.25961C1.60808 7.63711 1.2425 7.06157 0.965847 6.53296C0.689168 6.00435 0.481676 5.52515 0.343349 5.09534C0.205021 4.66554 0.111156 4.29502 0.0617534 3.98378C0.0123507 3.67254 -0.00741041 3.428 0.00247014 3.25015C0.0123507 3.0723 0.0172909 2.9735 0.0172909 2.95374C0.037052 2.81541 0.0815145 2.67461 0.150678 2.53134C0.219842 2.38807 0.303827 2.27198 0.402632 2.18305L2.3738 0.211886C2.51213 0.0735583 2.67022 0.00439453 2.84807 0.00439453C2.97651 0.00439453 3.09014 0.0414466 3.18894 0.115551C3.28775 0.189655 3.37173 0.28105 3.4409 0.389736L5.02673 3.39836C5.11565 3.55645 5.14035 3.72936 5.10083 3.91709C5.06131 4.10482 4.97732 4.26291 4.84888 4.39135L4.12266 5.11757C4.10289 5.13734 4.0856 5.16945 4.07078 5.21391C4.05596 5.25837 4.04855 5.29542 4.04855 5.32507C4.08807 5.53256 4.177 5.76969 4.31533 6.03646C4.43389 6.2736 4.61668 6.5626 4.8637 6.90348C5.11071 7.24436 5.46147 7.63709 5.91597 8.08171C6.3606 8.53627 6.75582 8.88945 7.10164 9.14145C7.44738 9.39331 7.73649 9.57864 7.96868 9.69721C8.20087 9.81577 8.37872 9.88741 8.50221 9.91203L8.68742 9.94911C8.70718 9.94911 8.73936 9.94168 8.78378 9.92688C8.82824 9.91203 8.86035 9.89477 8.88014 9.87498L9.7249 9.01538C9.90284 8.85731 10.1102 8.77827 10.3474 8.77827C10.5154 8.77827 10.6487 8.80788 10.7475 8.86719H10.7623L13.6227 10.5568C13.8303 10.6853 13.9538 10.8483 13.9933 11.0459Z" fill="currentColor"></path>
  </symbol>
  <symbol xmlns="http://www.w3.org/2000/svg" viewBox="0 0 24 24" id="ic_plus">
    <path d="M12 0C5.3828 0 0 5.3828 0 12C0 18.6172 5.3828 24 12 24C18.6172 24 24 18.6163 24 12C24 5.38373 18.6172 0 12 0ZM12 22.141C6.40898 22.141 1.85902 17.592 1.85902 12C1.85902 6.40805 6.40898 1.85902 12 1.85902C17.591 1.85902 22.141 6.40805 22.141 12C22.141 17.592 17.592 22.141 12 22.141Z" fill="currentColor"></path>
    <path d="M16.6465 10.9864H12.9285V7.2684C12.9285 6.7553 12.513 6.33887 11.999 6.33887C11.4849 6.33887 11.0694 6.7553 11.0694 7.2684V10.9864H7.35141C6.83738 10.9864 6.42188 11.4029 6.42188 11.916C6.42188 12.4291 6.83738 12.8455 7.35141 12.8455H11.0694V16.5635C11.0694 17.0766 11.4849 17.4931 11.999 17.4931C12.513 17.4931 12.9285 17.0766 12.9285 16.5635V12.8455H16.6465C17.1606 12.8455 17.5761 12.4291 17.5761 11.916C17.5761 11.4029 17.1606 10.9864 16.6465 10.9864Z" fill="currentColor"></path>
  </symbol>
  <symbol xmlns="http://www.w3.org/2000/svg" viewBox="0 0 16 16" id="ic_search">
    <path d="M15.6444 13.9038L12.3463 10.6059C13.1411 9.45854 13.5387 8.17947 13.5387 6.76936C13.5387 5.85271 13.3607 4.97603 13.0048 4.13953C12.6491 3.30289 12.1683 2.58177 11.5626 1.976C10.9568 1.37023 10.2358 0.889409 9.3993 0.533699C8.56256 0.177889 7.68595 0 6.76929 0C5.85271 0 4.97603 0.177889 4.13953 0.533699C3.30289 0.889409 2.58177 1.37023 1.976 1.976C1.37017 2.58177 0.889409 3.30303 0.533666 4.13953C0.177889 4.97613 0 5.85271 0 6.76936C0 7.68595 0.177889 8.56233 0.533666 9.39906C0.889375 10.2356 1.37017 10.9566 1.976 11.5624C2.58177 12.1683 3.30303 12.6489 4.13953 13.0049C4.97613 13.3606 5.85271 13.5385 6.76929 13.5385C8.17971 13.5385 9.45857 13.1408 10.606 12.3461L13.9041 15.6345C14.1348 15.878 14.4229 15.9998 14.7694 15.9998C15.1027 15.9998 15.3913 15.878 15.6347 15.6345C15.8782 15.391 16 15.1025 16 14.7692C16.0001 14.4296 15.8816 14.141 15.6444 13.9038ZM9.8126 9.81233C8.96966 10.6554 7.95531 11.0769 6.76929 11.0769C5.58348 11.0769 4.56913 10.6553 3.72613 9.81233C2.88313 8.96939 2.46164 7.95517 2.46164 6.76916C2.46164 5.58335 2.88323 4.56883 3.72613 3.72599C4.56896 2.88296 5.58348 2.46151 6.76929 2.46151C7.95517 2.46151 8.96953 2.88313 9.8126 3.72599C10.6557 4.56883 11.0771 5.58335 11.0771 6.76916C11.0771 7.95517 10.6555 8.96939 9.8126 9.81233Z" fill="currentColor"></path>
  </symbol>
  <symbol xmlns="http://www.w3.org/2000/svg" viewBox="0 0 20 16" id="ic_telegram">
    <path d="M1.77856 6.63147L18.1694 0.311722C18.9301 0.0368888 19.5946 0.497306 19.3481 1.64764L19.3495 1.64622L16.5586 14.7943C16.3518 15.7265 15.7979 15.9531 15.023 15.514L10.773 12.3817L8.72305 14.3566C8.49639 14.5832 8.30514 14.7745 7.86597 14.7745L8.16772 10.4494L16.0444 3.33347C16.3872 3.03172 15.9679 2.86172 15.516 3.16206L5.78206 9.29056L1.58589 7.98155C0.674973 7.69255 0.65514 7.07064 1.77856 6.63147Z" fill="currentColor"></path>
  </symbol>
  <symbol xmlns="http://www.w3.org/2000/svg" viewBox="0 0 18 16" id="ic_twitter">
    <path d="M17.4659 2.85504C17.0641 3.45865 16.5731 3.99788 16.0097 4.45439C15.9387 4.51358 15.8817 4.58786 15.843 4.67183C15.8044 4.75579 15.7849 4.84733 15.786 4.93978V4.9957C15.7795 6.20794 15.5568 7.40929 15.1284 8.54333C14.687 9.7336 14.0312 10.8329 13.1935 11.7868C12.0678 13.0683 10.6197 14.0252 8.99943 14.5582C7.93476 14.9038 6.82165 15.0767 5.70233 15.0704C3.92658 15.0702 2.1825 14.6002 0.647066 13.7082C0.592046 13.6769 0.548733 13.6285 0.523704 13.5704C0.498675 13.5123 0.493295 13.4476 0.508383 13.3861C0.523865 13.3256 0.559145 13.272 0.608601 13.2339C0.658058 13.1958 0.718844 13.1754 0.781277 13.1758H1.20628C2.55576 13.1791 3.87538 12.7787 4.99549 12.0261C4.32796 11.918 3.70323 11.6277 3.19014 11.1873C2.67705 10.7468 2.29552 10.1732 2.08759 9.52978C2.07695 9.49755 2.07501 9.46309 2.08199 9.42988C2.08897 9.39666 2.10461 9.36589 2.12733 9.34067C2.15004 9.31546 2.17903 9.2967 2.21133 9.28631C2.24364 9.27592 2.27812 9.27425 2.31128 9.28149C2.51484 9.31979 2.72151 9.33926 2.92865 9.33965H3.00693C2.36178 9.04325 1.81629 8.56633 1.4364 7.96652C1.05651 7.36672 0.85849 6.66972 0.866277 5.95978C0.866507 5.92656 0.875337 5.89397 0.891905 5.86517C0.908474 5.83638 0.932216 5.81237 0.960821 5.79547C0.989426 5.77858 1.02192 5.76938 1.05513 5.76878C1.08835 5.76817 1.12115 5.77618 1.15036 5.79202C1.41277 5.93852 1.69434 6.04769 1.98694 6.11636C1.4086 5.54418 1.03661 4.79618 0.929326 3.98973C0.822044 3.18329 0.985544 2.36405 1.39417 1.66057C1.40963 1.63355 1.43142 1.61069 1.45766 1.59394C1.4839 1.5772 1.51381 1.56707 1.54483 1.56443C1.57585 1.56179 1.60704 1.56672 1.63573 1.57879C1.66443 1.59086 1.68976 1.60971 1.70957 1.63373C2.51747 2.63405 3.51805 3.46192 4.65194 4.06826C5.78583 4.67459 7.02994 5.04702 8.31049 5.16346H8.32838C8.3472 5.16292 8.3657 5.15855 8.38277 5.15062C8.39984 5.1427 8.41512 5.13138 8.42768 5.11736C8.44023 5.10334 8.4498 5.08691 8.45581 5.06907C8.46181 5.05123 8.46412 5.03236 8.46259 5.0136C8.41265 4.56469 8.44142 4.11051 8.54759 3.67149C8.69192 3.07473 8.98817 2.52546 9.40757 2.07706C9.82696 1.62866 10.3552 1.29639 10.941 1.11254C11.3169 0.995142 11.7082 0.934821 12.1019 0.933596C12.9947 0.932567 13.8571 1.25794 14.5267 1.84846C14.6134 1.92607 14.7257 1.96906 14.8421 1.96925C14.8798 1.96845 14.9174 1.96319 14.9539 1.9536C15.5831 1.79462 16.1858 1.54523 16.7434 1.2132C16.7767 1.19262 16.8157 1.18285 16.8548 1.18525C16.8939 1.18764 16.9314 1.20206 16.962 1.22655C16.9926 1.25105 17.0149 1.2844 17.0258 1.32205C17.0367 1.35971 17.0357 1.39981 17.023 1.43689C16.8368 2.02245 16.5051 2.5512 16.0589 2.9736C16.4609 2.87775 16.8532 2.74522 17.231 2.57767C17.2683 2.56328 17.3091 2.56086 17.3479 2.57074C17.3866 2.58062 17.4213 2.60232 17.4471 2.63282C17.4729 2.66332 17.4886 2.70111 17.492 2.74093C17.4953 2.78076 17.4862 2.82064 17.4659 2.85504Z" fill="currentColor"></path>
  </symbol>
  <symbol xmlns="http://www.w3.org/2000/svg" viewBox="0 0 24 24" id="ic_user">
    <path d="M11.8275 11.5609C13.4158 11.5609 14.7909 10.9913 15.9148 9.86735C17.0383 8.74364 17.6081 7.3687 17.6081 5.78026C17.6081 4.19237 17.0385 2.81726 15.9146 1.69317C14.7907 0.56964 13.4156 0 11.8275 0C10.2391 0 8.86413 0.56964 7.74041 1.69336C6.6167 2.81707 6.04688 4.19219 6.04688 5.78026C6.04688 7.3687 6.6167 8.74382 7.74041 9.86753C8.8645 10.9911 10.2396 11.5609 11.8275 11.5609Z" fill="currentColor"></path>
    <path d="M21.9435 18.4546C21.9111 17.987 21.8455 17.4769 21.749 16.9382C21.6516 16.3954 21.5262 15.8824 21.3761 15.4134C21.2208 14.9288 21.01 14.4501 20.7491 13.9915C20.4787 13.5154 20.1608 13.1008 19.8041 12.7597C19.4311 12.4028 18.9745 12.1159 18.4464 11.9066C17.9201 11.6984 17.3369 11.593 16.7131 11.593C16.4681 11.593 16.2312 11.6935 15.7736 11.9914C15.492 12.175 15.1626 12.3874 14.7949 12.6224C14.4805 12.8227 14.0546 13.0104 13.5285 13.1803C13.0153 13.3464 12.4942 13.4306 11.9797 13.4306C11.4655 13.4306 10.9444 13.3464 10.4308 13.1803C9.90526 13.0106 9.47917 12.8229 9.16533 12.6226C8.80113 12.3898 8.47155 12.1774 8.18572 11.9912C7.7285 11.6933 7.49157 11.5928 7.24657 11.5928C6.62255 11.5928 6.03954 11.6984 5.51348 11.9068C4.98577 12.1157 4.52893 12.4026 4.15557 12.7599C3.79889 13.1012 3.48102 13.5156 3.21075 13.9915C2.95019 14.4501 2.73926 14.9286 2.58398 15.4136C2.43402 15.8826 2.30859 16.3954 2.21118 16.9382C2.1145 17.4761 2.04913 17.9864 2.01672 18.4552C1.98486 18.9135 1.96875 19.3905 1.96875 19.8724C1.96875 21.1252 2.367 22.1394 3.15234 22.8874C3.92797 23.6255 4.9541 23.9998 6.20232 23.9998H17.7585C19.0063 23.9998 20.0324 23.6255 20.8083 22.8874C21.5938 22.14 21.992 21.1254 21.992 19.8722C21.9918 19.3887 21.9755 18.9117 21.9435 18.4546Z" fill="currentColor"></path>
  </symbol>
  <symbol xmlns="http://www.w3.org/2000/svg" viewBox="0 0 18 18" id="ic_viber">
    <path d="M10.7913 0.0527344H7.21238C5.55128 0.0527344 3.95823 0.712601 2.78366 1.88717C1.60909 3.06174 0.949219 4.6548 0.949219 6.31589V9.0001C0.948721 10.1858 1.28478 11.3472 1.91834 12.3494C2.55189 13.3516 3.45691 14.1534 4.52817 14.6615V17.6522C4.52923 17.7106 4.54731 17.7673 4.58017 17.8155C4.61304 17.8638 4.65926 17.9013 4.71318 17.9237C4.76709 17.946 4.82635 17.9521 4.88368 17.9412C4.94101 17.9303 4.99393 17.903 5.03593 17.8625L7.63514 15.2633H10.7913C12.4524 15.2633 14.0455 14.6034 15.22 13.4288C16.3946 12.2543 17.0545 10.6612 17.0545 9.0001V6.31589C17.0545 4.6548 16.3946 3.06174 15.22 1.88717C14.0455 0.712601 12.4524 0.0527344 10.7913 0.0527344ZM13.1355 11.7917L12.2408 12.6864C11.2879 13.6192 8.80054 12.5544 6.60843 10.3154C4.41633 8.07629 3.45448 5.56431 4.37159 4.63155L5.26632 3.73681C5.44168 3.5794 5.66968 3.49346 5.90532 3.49594C6.14095 3.49842 6.36709 3.58916 6.53909 3.75023L7.8454 5.09234C7.94915 5.1994 8.02397 5.33109 8.06281 5.47502C8.10166 5.61896 8.10327 5.7704 8.06748 5.91513C8.03169 6.05985 7.95968 6.1931 7.85823 6.30233C7.75677 6.41157 7.6292 6.49321 7.48751 6.53958C7.27749 6.60401 7.10035 6.74687 6.99289 6.93847C6.88542 7.13008 6.85588 7.35571 6.9104 7.56852C7.13409 8.56168 8.39567 9.80537 9.33514 10.0492C9.54694 10.0996 9.76988 10.0712 9.96218 9.96903C10.1545 9.86691 10.3029 9.69818 10.3797 9.49444C10.4294 9.35235 10.5147 9.22542 10.6276 9.12587C10.7405 9.02632 10.8771 8.95751 11.0243 8.92605C11.1715 8.89459 11.3243 8.90154 11.468 8.94625C11.6117 8.99095 11.7415 9.07189 11.8449 9.18129L13.149 10.5234C13.3056 10.6983 13.3911 10.9254 13.3886 11.1601C13.3861 11.3949 13.2958 11.6202 13.1355 11.7917ZM9.81606 4.30273C9.72709 4.30231 9.63818 4.30754 9.54988 4.31839C9.51095 4.32265 9.47158 4.3192 9.43399 4.30824C9.3964 4.29728 9.36134 4.27903 9.3308 4.25452C9.30027 4.23001 9.27486 4.19972 9.25603 4.1654C9.2372 4.13107 9.22532 4.09337 9.22106 4.05444C9.2168 4.01552 9.22025 3.97614 9.23121 3.93856C9.24217 3.90097 9.26043 3.86591 9.28494 3.83537C9.30945 3.80484 9.33973 3.77943 9.37406 3.7606C9.40839 3.74177 9.44609 3.72989 9.48501 3.72563C9.5949 3.71298 9.70545 3.707 9.81606 3.70773C10.6077 3.70714 11.3671 4.02088 11.9275 4.57999C12.4879 5.13911 12.8033 5.89785 12.8045 6.68944C12.8052 6.80006 12.7992 6.91061 12.7866 7.0205C12.7823 7.05942 12.7704 7.09712 12.7516 7.13145C12.7328 7.16578 12.7074 7.19606 12.6768 7.22057C12.6463 7.24508 12.6112 7.26334 12.5737 7.2743C12.5361 7.28526 12.4967 7.2887 12.4578 7.28445C12.4188 7.28019 12.3811 7.2683 12.3468 7.24947C12.3125 7.23064 12.2822 7.20524 12.2577 7.1747C12.2332 7.14417 12.2149 7.10911 12.204 7.07152C12.193 7.03393 12.1896 6.99455 12.1938 6.95563C12.2036 6.86722 12.2088 6.77838 12.2095 6.68944C12.2083 6.05565 11.9555 5.44825 11.5068 5.00072C11.058 4.55319 10.4499 4.30214 9.81606 4.30273ZM11.6055 6.68944C11.5991 6.76418 11.5648 6.83377 11.5095 6.88448C11.4542 6.93518 11.3819 6.96331 11.3069 6.96331C11.2319 6.96331 11.1596 6.93518 11.1043 6.88448C11.049 6.83377 11.0148 6.76418 11.0083 6.68944C11.0083 6.37324 10.8827 6.06999 10.6591 5.84641C10.4355 5.62282 10.1323 5.49721 9.81606 5.49721C9.77467 5.50079 9.73299 5.49574 9.69366 5.48236C9.65434 5.46898 9.61822 5.44757 9.5876 5.41949C9.55698 5.39141 9.53254 5.35728 9.51581 5.31925C9.49909 5.28122 9.49046 5.24013 9.49046 5.19859C9.49046 5.15705 9.49909 5.11596 9.51581 5.07793C9.53254 5.0399 9.55698 5.00577 9.5876 4.97769C9.61822 4.94961 9.65434 4.9282 9.69366 4.91482C9.73299 4.90144 9.77467 4.89639 9.81606 4.89997C10.2907 4.89997 10.7458 5.0885 11.0814 5.4241C11.417 5.75969 11.6055 6.21485 11.6055 6.68944ZM13.8804 7.658C13.8738 7.69866 13.8589 7.73753 13.8366 7.77216C13.8142 7.8068 13.785 7.83647 13.7507 7.85931C13.7165 7.88215 13.6778 7.89768 13.6373 7.90493C13.5967 7.91217 13.5551 7.91098 13.515 7.90142C13.475 7.89187 13.4373 7.87415 13.4044 7.84938C13.3714 7.82462 13.344 7.79333 13.3237 7.75747C13.3034 7.72161 13.2907 7.68196 13.2864 7.64098C13.2822 7.6 13.2864 7.55859 13.2988 7.51931C13.3634 7.24895 13.3957 6.97189 13.395 6.69392C13.395 5.74472 13.0179 4.8344 12.3468 4.16322C11.6756 3.49204 10.7653 3.11497 9.81606 3.11497C9.72435 3.11497 9.6304 3.11497 9.53869 3.11497C9.49963 3.11791 9.46036 3.11312 9.42314 3.10089C9.38592 3.08865 9.35148 3.0692 9.32178 3.04365C9.26179 2.99205 9.22476 2.91874 9.21883 2.83984C9.21289 2.76094 9.23855 2.68291 9.29014 2.62292C9.34174 2.56294 9.41505 2.5259 9.49396 2.51997C9.60132 2.51102 9.70869 2.50655 9.81606 2.50655C10.9243 2.50833 11.9865 2.94981 12.7695 3.73406C13.5525 4.51831 13.9922 5.58123 13.9922 6.68944C13.9924 7.01552 13.9548 7.34053 13.8804 7.658Z" fill="currentColor"></path>
  </symbol>
  <symbol xmlns="http://www.w3.org/2000/svg" viewBox="0 0 15 17" id="ic_video_play">
    <path d="M15 8.5L0.749999 16.7272L0.75 0.272758L15 8.5Z" fill="currentColor"></path>
  </symbol>
  <symbol xmlns="http://www.w3.org/2000/svg" viewBox="0 0 18 10" id="ic_vk">
    <path d="M16.8402 9.85846C16.442 9.91438 14.5071 9.85846 14.4065 9.85846C13.9062 9.86353 13.4241 9.67149 13.0644 9.32385C12.655 8.93017 12.286 8.49622 11.8945 8.08688C11.7757 7.9621 11.6478 7.84621 11.512 7.74017C11.1921 7.49635 10.8767 7.55227 10.7269 7.92806C10.6095 8.33537 10.5287 8.75233 10.4853 9.17398C10.4783 9.3516 10.4011 9.5192 10.2707 9.63997C10.1403 9.76075 9.96727 9.82485 9.78964 9.81819C9.52569 9.83161 9.26175 9.83832 9.00003 9.83161C8.048 9.82668 7.11063 9.59674 6.26438 9.16056C5.35081 8.65004 4.55449 7.95355 3.92688 7.11609C2.92272 5.79014 2.05491 4.36626 1.33661 2.86609C1.29859 2.79004 0.544772 1.18622 0.526877 1.1124C0.480142 1.00731 0.47568 0.888251 0.514418 0.779952C0.553155 0.671654 0.632116 0.582437 0.734904 0.530825C0.869114 0.479378 3.35425 0.530825 3.39451 0.530825C3.57956 0.529063 3.76033 0.586499 3.91043 0.694747C4.06053 0.802996 4.1721 0.95639 4.22885 1.13254C4.68846 2.30427 5.31613 3.40289 6.09214 4.39385C6.20038 4.52741 6.32777 4.64425 6.47017 4.74056C6.50687 4.77599 6.55236 4.80097 6.60195 4.81292C6.65154 4.82487 6.70343 4.82335 6.75223 4.80853C6.80104 4.7937 6.845 4.76611 6.87957 4.7286C6.91414 4.69109 6.93806 4.64502 6.94885 4.59517C7.04716 4.27176 7.10502 3.93741 7.12109 3.59977C7.13451 2.92872 7.12109 2.48135 7.08306 1.8103C7.09658 1.58162 7.01938 1.35683 6.8682 1.18472C6.71703 1.0126 6.50408 0.907046 6.27556 0.890957C6.07872 0.857404 6.05188 0.696351 6.18832 0.535299C6.45004 0.202009 6.8124 0.148325 7.20609 0.128194C7.80109 0.0946409 8.39832 0.128194 8.99556 0.128194H9.1253C9.38751 0.127542 9.6491 0.153775 9.90596 0.206483C10.0561 0.237244 10.1924 0.315707 10.2944 0.430181C10.3963 0.544654 10.4586 0.689012 10.4719 0.841746C10.502 1.01076 10.5155 1.18233 10.5121 1.35398C10.4965 2.08543 10.4607 2.81688 10.4517 3.55056C10.4464 3.84036 10.4727 4.12987 10.53 4.41398C10.6173 4.80319 10.8835 4.90161 11.1564 4.61754C11.4964 4.25253 11.8082 3.86219 12.0891 3.4499C12.5942 2.69921 13.01 1.89224 13.3283 1.0453C13.5006 0.611351 13.6325 0.515167 14.1 0.515167H16.7373C16.8946 0.512544 17.0515 0.533658 17.2025 0.577798C17.2558 0.592014 17.3057 0.617036 17.3489 0.651312C17.3922 0.685587 17.4279 0.728384 17.4539 0.777047C17.4799 0.82571 17.4956 0.879199 17.5001 0.934195C17.5046 0.989191 17.4977 1.04452 17.4799 1.09675C17.3257 1.65789 17.0611 2.18261 16.7015 2.64017C16.1646 3.39846 15.601 4.13885 15.0507 4.87701C14.9811 4.97359 14.9176 5.07445 14.8606 5.17898C14.6548 5.5503 14.6704 5.76056 14.9679 6.07372C15.4466 6.56583 15.9588 7.02885 16.4196 7.53438C16.7595 7.90274 17.0663 8.30018 17.3367 8.72214C17.6767 9.26793 17.4687 9.76898 16.8402 9.85846Z" fill="currentColor"></path>
  </symbol>
  <symbol xmlns="http://www.w3.org/2000/svg" viewBox="0 0 18 18" id="ic_whatsapp">
    <path d="M14.9958 3.00313C13.5811 1.5725 11.7017 0.694769 9.69663 0.528404C7.69159 0.36204 5.69315 0.918006 4.0621 2.09593C2.43105 3.27385 1.27488 4.9961 0.802324 6.95174C0.329773 8.90738 0.571983 10.9675 1.48522 12.7602L0.590488 17.1042C0.580907 17.1476 0.580536 17.1925 0.589398 17.236C0.59826 17.2796 0.616158 17.3208 0.641935 17.3569C0.67885 17.4117 0.731618 17.454 0.793179 17.4779C0.854739 17.5019 0.922155 17.5065 0.986409 17.4912L5.23641 16.4823C7.02421 17.3716 9.06956 17.5977 11.0084 17.1203C12.9473 16.6429 14.6538 15.493 15.8243 13.8752C16.9948 12.2575 17.5532 10.2769 17.4003 8.28602C17.2473 6.29512 16.3929 4.42309 14.989 3.00313H14.9958ZM13.6671 13.5991C12.6887 14.5757 11.4289 15.2211 10.0647 15.4446C8.70054 15.6681 7.30063 15.4584 6.0618 14.845L5.4668 14.5497L2.85641 15.1671V15.1335L3.40667 12.5008L3.11588 11.9281C2.48246 10.6859 2.2588 9.27503 2.47702 7.89785C2.69523 6.52067 3.34409 5.248 4.33049 4.26247C5.56904 3.02521 7.24811 2.33023 8.99878 2.33023C10.7494 2.33023 12.4285 3.02521 13.6671 4.26247L13.6961 4.30274C14.9186 5.54393 15.601 7.21794 15.5947 8.96004C15.5885 10.7021 14.894 12.3712 13.6626 13.6035L13.6671 13.5991Z" fill="currentColor"></path>
    <path d="M13.4372 11.6845C13.1174 12.1878 12.6096 12.8029 11.9766 12.9572C10.8582 13.2257 9.15593 12.9572 7.02422 10.9866L6.99738 10.962C5.14304 9.23066 4.65093 7.7879 4.76054 6.64487C4.82541 5.99395 5.36672 5.4079 5.82304 5.02316C5.89559 4.96199 5.98144 4.91864 6.07374 4.89657C6.16604 4.8745 6.26221 4.87432 6.35459 4.89606C6.44697 4.91779 6.53298 4.96083 6.60575 5.02174C6.67852 5.08265 6.73604 5.15974 6.7737 5.24685L7.46041 6.79922C7.50524 6.89914 7.52205 7.00938 7.50905 7.11813C7.49605 7.22688 7.45372 7.33004 7.38659 7.41658L7.03764 7.86395C6.96512 7.95682 6.92191 8.06919 6.91354 8.18673C6.90517 8.30426 6.93203 8.42162 6.99067 8.52382C7.32213 9.01236 7.71873 9.45336 8.16949 9.83461C8.65446 10.3013 9.20447 10.6954 9.80238 11.0045C9.91151 11.0485 10.0313 11.059 10.1464 11.0347C10.2615 11.0104 10.3668 10.9524 10.4488 10.868L10.8492 10.4609C10.9254 10.379 11.0228 10.3198 11.1306 10.2897C11.2383 10.2597 11.3523 10.2602 11.4599 10.2909L13.0928 10.7584C13.1853 10.7848 13.2703 10.8325 13.341 10.8978C13.4116 10.9631 13.4659 11.0441 13.4995 11.1342C13.533 11.2244 13.5449 11.3212 13.534 11.4168C13.5232 11.5124 13.4901 11.6041 13.4372 11.6845Z" fill="currentColor"></path>
  </symbol>
  <symbol xmlns="http://www.w3.org/2000/svg" viewBox="0 0 18 14" id="ic_youtube">
    <path d="M17.1024 2.91127C16.7624 1.85548 15.6373 1.2314 14.5927 1.08601C10.8691 0.690081 7.1141 0.690081 3.39056 1.08601C2.3549 1.2314 1.22977 1.86443 0.889773 2.91127C0.359659 5.61221 0.359659 8.39046 0.889773 11.0914C1.23872 12.145 2.36385 12.7713 3.40846 12.9167C7.13212 13.3103 10.8869 13.3103 14.6106 12.9167C15.6462 12.7713 16.7714 12.136 17.1114 11.0914C17.6385 8.38988 17.6355 5.61163 17.1024 2.91127ZM6.96727 10.2571V3.74337L12.2708 7.00022C10.4836 8.09851 8.7478 9.16772 6.96727 10.2571Z" fill="currentColor"></path>
  </symbol>
  <symbol xmlns="http://www.w3.org/2000/svg" viewBox="0 0 30 30" id="ic_zoom">
    <path d="M28.7925 27.4593L22.3706 21.0468C24.4215 18.6541 25.4658 15.56 25.2845 12.4139C25.1031 9.26778 23.7102 6.31419 21.398 4.17301C19.0858 2.03182 16.0341 0.869503 12.8833 0.929981C9.73253 0.990459 6.72767 2.26903 4.49933 4.49737C2.27099 6.72571 0.992413 9.73058 0.931935 12.8813C0.871457 16.0321 2.03378 19.0838 4.17496 21.396C6.31615 23.7083 9.26973 25.1012 12.4159 25.2825C15.562 25.4639 18.6561 24.4195 21.0487 22.3687L27.4612 28.7905C27.5484 28.8784 27.6521 28.9481 27.7663 28.9957C27.8806 29.0433 28.0031 29.0678 28.1269 29.0678C28.2506 29.0678 28.3732 29.0433 28.4874 28.9957C28.6016 28.9481 28.7053 28.8784 28.7925 28.7905C28.8804 28.7034 28.9501 28.5997 28.9977 28.4854C29.0453 28.3712 29.0698 28.2487 29.0698 28.1249C29.0698 28.0011 29.0453 27.8786 28.9977 27.7644C28.9501 27.6501 28.8804 27.5464 28.7925 27.4593ZM2.81436 13.1249C2.81436 11.0853 3.41918 9.09147 4.55233 7.39559C5.68548 5.69971 7.29607 4.37793 9.18044 3.5974C11.0648 2.81687 13.1383 2.61265 15.1387 3.01056C17.1392 3.40847 18.9767 4.39064 20.4189 5.83287C21.8611 7.2751 22.8433 9.11261 23.2412 11.113C23.6391 13.1135 23.4349 15.187 22.6544 17.0713C21.8738 18.9557 20.5521 20.5663 18.8562 21.6994C17.1603 22.8326 15.1665 23.4374 13.1269 23.4374C10.3918 23.4374 7.76879 22.3509 5.83482 20.4169C3.90085 18.483 2.81436 15.86 2.81436 13.1249Z" fill="currentColor"></path>
    <path d="M18.75 12.1875H14.0625V7.5C14.0625 7.25136 13.9637 7.0129 13.7879 6.83709C13.6121 6.66127 13.3736 6.5625 13.125 6.5625C12.8764 6.5625 12.6379 6.66127 12.4621 6.83709C12.2863 7.0129 12.1875 7.25136 12.1875 7.5V12.1875H7.5C7.25136 12.1875 7.0129 12.2863 6.83709 12.4621C6.66127 12.6379 6.5625 12.8764 6.5625 13.125C6.5625 13.3736 6.66127 13.6121 6.83709 13.7879C7.0129 13.9637 7.25136 14.0625 7.5 14.0625H12.1875V18.75C12.1875 18.9986 12.2863 19.2371 12.4621 19.4129C12.6379 19.5887 12.8764 19.6875 13.125 19.6875C13.3736 19.6875 13.6121 19.5887 13.7879 19.4129C13.9637 19.2371 14.0625 18.9986 14.0625 18.75V14.0625H18.75C18.9986 14.0625 19.2371 13.9637 19.4129 13.7879C19.5887 13.6121 19.6875 13.3736 19.6875 13.125C19.6875 12.8764 19.5887 12.6379 19.4129 12.4621C19.2371 12.2863 18.9986 12.1875 18.75 12.1875Z" fill="currentColor"></path>
  </symbol>
</svg>